<?xml version="1.0" encoding="UTF-8"?>
<svg id="_Слой_1" data-name="Слой_1" xmlns="http://www.w3.org/2000/svg" version="1.1" viewBox="0 0 6803.15 1984.25">
  <!-- Generator: Adobe Illustrator 29.8.2, SVG Export Plug-In . SVG Version: 2.1.1 Build 3)  -->
  <defs>
    <style>
      .st0, .st1 {
        fill: #30462d;
      }

      .st2, .st3, .st4, .st1, .st5 {
        stroke-miterlimit: 10;
      }

      .st2, .st3, .st1 {
        stroke-width: 5px;
      }

      .st2, .st3, .st1, .st5 {
        stroke: #30462d;
      }

      .st2, .st5 {
        fill: #c1d3cb;
      }

      .st6, .st4 {
        fill: #334737;
      }

      .st7 {
        fill: #829d88;
      }

      .st3, .st8 {
        fill: #a4d1dd;
      }

      .st4 {
        stroke: #1d1d1b;
        stroke-linecap: round;
      }
    </style>
  </defs>
  <rect class="st7" x="-1.06" y="-.03" width="6817.4" height="2048.62"/>
  <path class="st6" d="M1127.76,774.96c-7.21,7.54-17.56,6.49-29.48,6.77-8.91,0-17.77,0-26.72.01-26.02,0-52.03.03-74.31,0-10.72-.14-21.89.81-28.11-7.35-7.04-10.14-4.99-23.63-5.42-35.44.04-6.89-.1-14.26.52-20.77,1.2-14.03,8.27-20.92,22.69-21.29,38.19-.35,86.83-.39,123.88-.04,6.95.28,14.28,1.8,18.2,7.67,5.37,8.46,4.65,18.22,4.89,28.79-.52,12.43,2.2,32.15-6.05,41.54l-.1.11Z"/>
  <path class="st6" d="M1411.22,774.96c-7.21,7.54-17.56,6.49-29.48,6.77-8.91,0-17.77,0-26.72.01-26.02,0-52.03.03-74.31,0-10.72-.14-21.89.81-28.11-7.35-7.04-10.14-4.99-23.63-5.42-35.44.04-6.89-.1-14.26.52-20.77,1.2-14.03,8.27-20.92,22.69-21.29,38.19-.35,86.83-.39,123.88-.04,6.95.28,14.28,1.8,18.2,7.67,5.37,8.46,4.65,18.22,4.89,28.79-.53,12.47,2.22,32.08-6.05,41.54l-.1.11Z"/>
  <path class="st6" d="M1808.07,774.96c-7.21,7.54-17.56,6.49-29.48,6.77-8.91,0-17.77,0-26.72.01-26.02,0-52.03.03-74.31,0-10.72-.14-21.89.81-28.11-7.35-7.04-10.14-4.99-23.63-5.42-35.44.04-6.89-.1-14.26.52-20.77,1.2-14.03,8.27-20.92,22.69-21.29,38.19-.35,86.83-.39,123.88-.04,6.95.28,14.28,1.8,18.2,7.67,5.37,8.46,4.65,18.22,4.89,28.79-.52,12.43,2.2,32.15-6.05,41.54l-.1.11Z"/>
  <path class="st6" d="M2091.54,774.34c-7.21,7.54-17.56,6.49-29.48,6.77-8.91,0-17.77,0-26.72.01-26.02,0-52.03.03-74.31,0-10.72-.14-21.89.81-28.11-7.35-7.04-10.14-4.99-23.63-5.42-35.44.04-6.89-.1-14.26.52-20.77,1.2-14.03,8.27-20.92,22.69-21.29,38.19-.35,86.83-.39,123.88-.04,6.95.28,14.28,1.8,18.2,7.67,5.37,8.46,4.65,18.22,4.89,28.79-.53,12.47,2.22,32.08-6.05,41.54l-.1.11Z"/>
  <path class="st6" d="M2375,774.34c-7.21,7.54-17.56,6.49-29.48,6.77-8.91,0-17.77,0-26.72.01-26.02,0-52.03.03-74.31,0-10.72-.14-21.89.81-28.11-7.35-7.04-10.14-4.99-23.63-5.42-35.44.04-6.89-.1-14.26.52-20.77,1.15-13.97,8.33-20.96,22.69-21.29,38.19-.35,86.83-.39,123.88-.04,6.95.28,14.28,1.8,18.2,7.67,5.37,8.46,4.65,18.22,4.89,28.79-.53,12.47,2.22,32.08-6.05,41.54l-.1.11Z"/>
  <rect class="st0" x="2801.13" y="1603.21" width="535.01" height="298.51"/>
  <path class="st1" d="M4831.11,1000.52l161.31-27.28-161.31,27.28Z"/>
  <path class="st1" d="M5439.07,1051.99l161.31,33.22-161.31-33.22Z"/>
  <path class="st6" d="M2658.47,774.34c-7.21,7.54-17.56,6.49-29.48,6.77-8.91,0-17.77,0-26.72.01-26.02,0-52.03.03-74.31,0-10.72-.14-21.89.81-28.11-7.35-7.04-10.14-4.99-23.63-5.42-35.44.04-6.89-.1-14.26.52-20.77,1.2-14.03,8.27-20.92,22.69-21.29,38.19-.35,86.83-.39,123.88-.04,6.95.28,14.28,1.8,18.2,7.67,5.37,8.46,4.65,18.22,4.89,28.79-.52,12.43,2.2,32.15-6.05,41.54l-.1.11Z"/>
  <path class="st6" d="M2767.01,967.97c-9.08-5-19.96-4.74-30.12-4.88-15.74-.05-32.49-.1-48.14,0-31.18-.57-37.75,10.96-52.72,35.91-5.82,9.56-11.67,19.07-17.45,28.66-4.75,8.04-10.06,16.74-10.7,24.93-1.09,12.92,7.31,24.06,13.45,34.78,6.93,11.35,13.86,22.8,20.74,33.91,5.19,8.38,11.13,17.1,20.15,21.54,6.61,3.38,14.41,4.23,21.87,4.47,21.24.29,43.57.38,64.98-.31,17.29-.67,26.03-7.79,34.89-22.07,10.26-16.53,21.15-33.89,30.73-50.6,11.14-19.66,3.73-33.04-7.15-50.35-6.44-10.55-13.58-22.36-20.4-33.41-5.28-8.47-11.07-17.67-19.96-22.48l-.16-.09Z"/>
  <path class="st1" d="M5679.33,1530.94l273.43-.23-273.43.23Z"/>
  <path class="st4" d="M3101.96,589.38c-8.96-5.41-19.76-5.02-29.91-5.07-18.46-.03-43.59-.02-64.32,0-16.42,0-35.85.03-50.57.03-15.1-.15-30.32-.73-41.45,11.34-4.02,4.15-6.95,8.98-9.96,13.97-18.08,30.28-42.55,71.29-61.12,102.47-7.94,12.82-13.76,25.07-6.97,39.88,18.11,34.51,46.69,78.61,65.53,111.14,3.11,5.18,6.12,10.55,9.78,15.23,3.07,3.91,6.61,7.19,11.04,9.53,13.89,7.14,31.03,4.4,46.26,4.96,38.1-.5,78.54,1.19,116.86-.71,5.31-.67,10.24-2.09,14.57-4.54,6.89-3.81,12.11-10.36,16.32-17.13,5.75-9.27,11.24-18.73,16.87-28.09,16.1-27.19,32.95-54.95,48.77-82.05,3.9-6.84,7.3-15.24,7.19-22.68,0-4.51-1.14-8.73-2.99-12.9-18.43-33.82-44.47-74.78-66.19-112.02-5.12-8.64-10.92-18.19-19.55-23.26l-.14-.08Z"/>
  <path class="st5" d="M3325.83,1892.29c-4.4,5.25-12.37,5.28-18.95,5.27-127.08-4.06-424.86,8.35-497.56-4.31-2.34-3.97-2.95-12.64-2.98-18.55-.13-72.36-.09-161.35.02-236.59.29-12.63,2.56-26.28,18.08-23.8,81.69.8,415.36-1.97,497.35.74,6.74.84,8.3,9.55,8.54,15.71.55,52.17.28,108.06.59,161.51-.12,30.65.19,59.06-.71,85.91-.29,4.99-1.39,10.45-4.32,14.02l-.08.09Z"/>
  <path class="st6" d="M1223.51,435.07c-5.59.18-10.37,8.1-13.44,13.09-6.31,10.6-13,22.06-19.36,32.82-20.06,35.02-44.27,73.07-62.73,107.73-1.35,3.68-2.22,6.72-.74,10.02,2.96,5.07,10.83,4.7,16.77,4.85,45.87-.18,122.01.54,166.49-.22,2.93-.25,5.41-.77,7.18-1.74,6.64-3.94,2.02-12.12-.74-17.85-18.05-31.48-40.51-68.82-59.47-101.19-6.82-11.54-13.86-23.66-20.67-35.06-2.98-4.84-7.75-12.39-13.18-12.44h-.1Z"/>
  <path class="st0" d="M3824.38,434.46c-5.59.18-10.37,8.1-13.44,13.09-6.31,10.6-13,22.06-19.36,32.82-20.06,35.02-44.27,73.07-62.73,107.73-1.35,3.68-2.22,6.72-.74,10.02,2.96,5.07,10.83,4.7,16.77,4.85,45.87-.18,122.01.54,166.49-.22,2.93-.25,5.41-.77,7.18-1.74,6.64-3.94,2.02-12.12-.74-17.85-18.05-31.48-40.51-68.82-59.47-101.19-6.82-11.54-13.86-23.66-20.67-35.06-2.98-4.84-7.75-12.39-13.18-12.44h-.1Z"/>
  <path class="st0" d="M3813.12,700.94c-6.05-3.17-13.7-4.39-20.82-4.66-26.75-.54-57.22-.07-82.57-.21-23.3.27-39.81-2.65-54.46,19.32-14.78,21.89-29.52,44.59-43.92,66.7-16.21,23.6-14.23,33.7,1.7,57.24,14.76,22.03,29.02,45.97,44.82,67.55,3.57,4.4,7.57,8.09,12.23,10.65,10.72,6.01,24.1,5.22,36.29,5.33,8.9,0,17.77,0,26.68,0,14.96,0,30.21,0,45.14-.01,13.64-.18,27.25.75,38.04-6.71,5.03-3.4,8.78-8.11,12.31-13.06,4.81-6.87,9.11-13.69,13.87-20.88,10.49-16.04,22.34-33.84,32.54-49.86,6.08-9.21,10.87-20.42,7.09-31.42-2.1-6.99-6.72-13.77-11.26-20.8-3.82-5.86-7.62-11.68-11.46-17.57-7.55-11.57-15.16-23.23-22.73-34.76-6.79-9.99-12.93-21.52-23.34-26.76l-.15-.08Z"/>
  <path class="st2" d="M3693.53,1580.28c-8.25,7.38-21.51,4.95-31.94,5.49-18.37,0-37.55,0-56.05,0-8.38-.06-16.82.15-25.16-.19-9.95-.13-19.63-4.28-21.65-14.84-2.88-20.9-.56-42.86-1.28-64.32.09-13.33-.22-26.7.21-40,.24-15.02,7.14-22,22.22-22.23,13.31-.44,26.67-.12,40-.21,21.52.72,43.35-1.62,64.35,1.3,10.48,2.04,14.69,11.66,14.81,21.59.33,8.34.14,16.82.19,25.2,0,18.5,0,37.69,0,56.06-.54,10.48,1.91,23.82-5.6,32.04l-.11.1Z"/>
  <path class="st2" d="M3858.35,1607.07c-9.08-5-19.96-4.74-30.12-4.88-15.74-.05-32.49-.1-48.14,0-31.18-.57-37.75,10.96-52.72,35.91-5.82,9.56-11.67,19.07-17.45,28.66-4.75,8.04-10.06,16.74-10.7,24.93-1.09,12.92,7.31,24.06,13.45,34.78,6.93,11.35,13.86,22.8,20.74,33.91,5.19,8.38,11.13,17.1,20.15,21.54,6.61,3.38,14.41,4.23,21.87,4.47,21.24.29,43.57.38,64.98-.31,17.29-.67,26.03-7.79,34.89-22.07,10.26-16.53,21.15-33.89,30.73-50.6,11.14-19.66,3.73-33.04-7.15-50.35-6.44-10.55-13.58-22.36-20.4-33.41-5.28-8.47-11.07-17.67-19.96-22.48l-.16-.09Z"/>
  <path class="st2" d="M4722.7,877.45c-7.19-2.39-16-1.95-23.85-.7-36.58,6.07-83.06,14.48-114.58,19.89-24,3.44-34.18,9.37-43.17,32.74-12.54,32.1-25.36,65.4-37.78,97.39-10.53,25.46-10.41,37.45,8.47,57.91,20,22.85,40.1,45.67,60.26,68.68,6.71,7.44,13.04,15.58,20.57,22.05,13.93,12.03,28.69,9.46,45.31,6.29,36.58-7.01,86.17-13.25,123.12-22.35,4.21-1.47,7.96-3.46,11.12-6.07,5.74-4.66,9.45-11.49,12.34-18.45,12.72-31.99,27.71-71.57,40.03-103.15,10.65-25.47,9.3-36.59-9.76-57-22.85-25.89-51.38-58.92-74.68-84.94-4.91-5.36-10.33-10.03-17.25-12.23l-.16-.05Z"/>
  <path class="st2" d="M5361.36,838.5c-3.55-3.16-7.69-5.3-12.3-6.74-52.77-10.92-133.75-23.5-185.53-33.1-23.76-4.9-34.27,3.52-48.36,21.56-33.27,40.37-87.31,102.34-115.91,139.14-3.44,4.71-6.11,9.84-6.73,15.53-.62,5.3.49,11.12,2.51,17.57,17.6,51.08,45.15,125.03,62.08,172.55,4.78,14.65,12.2,24.51,27.78,28.86,11.56,3.05,24.06,4.61,36.08,6.89,45.92,8.05,92.18,16.18,137.91,24.2,18.17,3.46,33.61,5.42,47.75-8.95,35.79-40.68,71.55-85.52,106.53-126.72,9.19-11.61,21.95-23.41,25.22-38.03,1.01-4.88.59-9.56-.6-14.29-15.78-47.1-41.58-115.25-61.16-170.59-3.46-9.8-7.44-21-15.16-27.79l-.12-.11Z"/>
  <path class="st2" d="M5826.96,903.08c-7.19-2.39-16-1.95-23.85-.7-36.58,6.07-83.06,14.48-114.58,19.89-24,3.44-34.18,9.37-43.17,32.74-12.54,32.1-25.36,65.4-37.78,97.39-10.53,25.46-10.41,37.45,8.47,57.91,20,22.85,40.1,45.67,60.26,68.68,6.71,7.44,13.04,15.58,20.57,22.05,13.93,12.03,28.69,9.46,45.31,6.29,36.58-7.01,86.17-13.25,123.12-22.35,4.21-1.47,7.96-3.46,11.12-6.07,5.74-4.66,9.45-11.49,12.34-18.45,12.72-31.99,27.71-71.57,40.03-103.15,10.65-25.47,9.3-36.59-9.76-57-22.85-25.89-51.38-58.92-74.68-84.94-4.91-5.36-10.33-10.03-17.25-12.23l-.16-.05Z"/>
  <path class="st0" d="M4434.86,1163.18c-5.24,2.31-7.58,12.12-8.95,18.04-13.68,60.66-29.46,129.54-42.8,189.09-1.26,6.22-3.02,13.02-1.24,18.56,1.93,4.98,7.24,4.08,11.95,2.69,50.72-17.9,157.07-57.08,209.05-75.81,10-3.69,25.73-7.6,13.55-20.34-2.55-2.74-6.1-5.53-9.28-7.94-49.64-37.73-105.34-80.04-155.48-118.05-4.42-3.38-12.12-8.55-16.71-6.29l-.09.04Z"/>
  <path class="st0" d="M4916.05,1058.69c-6.23.24-10.98,7.9-14.32,13.09-8.45,13.65-17.55,28.59-26.69,43.5-10.68,17.48-22.44,36.63-32.66,53.24-4.13,7.21-10.14,14.96-11.47,23.03-.73,6,4.79,7.94,10.4,8.42,38.11,1.69,98.99.08,136.97.33,8.12-.2,24.51,1.66,22.5-10.34-.68-3.8-2.39-7.19-4.46-10.86-3.57-6.13-7.55-12.45-11.34-18.65-12.17-19.76-24.26-39.59-36.3-59.23-4.25-6.94-8.57-13.98-12.79-20.86-4.79-6.93-10.84-21.18-19.7-21.66h-.12Z"/>
  <path class="st0" d="M5573.57,1112.44c-7.86-5.46-17.89-6.4-27.26-7.33-13.78-1.27-28.85-2.46-42.59-3.62-30.99-3.16-41.15-.62-59.46,26.13-6.57,9.03-13.07,18.16-19.58,27.23-6.34,9.17-14.71,19.14-16.83,29.23-2.81,12.64,3.86,24.76,9.02,35.98,5.97,12.42,11.85,24.75,17.79,36.96,4.44,9.08,9.45,18.74,18.14,24.32,7.08,4.72,16.04,6.2,24.48,7.05,18.18,1.67,36.83,3.27,55.19,4.66,21.96,1.86,32.74-4.07,45.39-21.8,8.71-11.72,17.45-24.15,25.89-35.91,4.28-6.07,8.83-12.18,11.96-18.85,8.17-16.24-1.99-32.53-8.84-47.25-5.51-11.4-11.32-23.78-17.13-35.45-3.96-7.93-8.7-16.26-16.03-21.24l-.15-.1Z"/>
  <path class="st0" d="M5012.17,843.58c-.34,11.23-12.37,20.12-19.55,28.02-19.57,19.46-39.26,39.89-59.18,59.18-19.36,18.35-31.71,3.17-46.26-11.44-19.38-19.76-39.46-39.15-58.53-59.15-11.04-11.74-11.1-21.75,0-33.53,19.01-19.96,39.04-39.3,58.38-59.01,14.35-14.34,26.8-29.98,46.1-11.86,20.1,19.39,39.91,40.01,59.64,59.6,7.21,7.93,19.15,16.73,19.4,28.03v.16Z"/>
  <path class="st0" d="M4443.43,1116.91c-5.23,9.28-15.67,12.13-26.87,16.58-11.45,4.16-23.04,8.38-34.58,12.36-27.5,9.78-36.38,1.93-45.54-25.05-8.47-22.59-18.08-48.47-26.39-71.53-2.18-6.13-4.43-12.16-5.56-17.77-3.31-14.72,5.26-23.11,18.02-28.41,11.73-4.9,24.01-8.91,35.97-13.31,10.87-3.59,21.66-8.67,32.34-6.51,13.96,3.19,18.43,19.21,23.07,31.1,8.91,24.25,18.12,48.9,26.93,73.19,3.07,9.07,7.33,20.23,2.69,29.2l-.07.14Z"/>
  <path class="st2" d="M668.53,492.06c-5.64-2.38-11.46-6.21-16.56-10.15-16.67-13.13-34.35-28.6-50.61-42.2-8.58-7.39-18.19-14.49-25.39-23.1-7.31-8.7-9.25-15.99-8.92-25.97.54-76.2-1.38-297.22.35-377.86.36-7.14,1.55-11.67,8.92-12.22,93.49-.68,457.73-3.67,550.86,1.4,3.19,2.08,5.26,6.31,6.13,13.18,1.38,19.69.14,40.58.43,60.57-.66,103.66,1.83,262.24-.59,324.58-.33,3.02-1.17,6.01-2.79,9.07-5.67,10.11-16.59,18.15-25.55,25.88-20.24,16.56-41.39,35.95-62.37,51.27-9.11,6.37-18.77,10.19-29.24,9.76-54.45.05-194.74,0-280.35.01-13.2-.03-26.7.05-39.08-.02-8.61-.04-17.15-.68-25.08-4.13l-.15-.07Z"/>
  <path class="st2" d="M1405.54,491.85c-5.64-2.38-11.46-6.21-16.56-10.15-16.67-13.13-34.35-28.6-50.61-42.2-8.58-7.39-18.19-14.49-25.39-23.1-7.31-8.7-9.25-15.99-8.92-25.97.54-76.2-1.38-297.22.35-377.86.36-7.14,1.55-11.67,8.92-12.22,93.49-.68,457.73-3.67,550.86,1.4,3.19,2.08,5.26,6.31,6.13,13.18,1.38,19.69.14,40.58.43,60.57-.66,103.66,1.83,262.24-.59,324.58-.33,3.02-1.17,6.01-2.79,9.07-5.67,10.11-16.59,18.15-25.55,25.88-20.24,16.56-41.39,35.95-62.37,51.27-9.11,6.37-18.77,10.19-29.24,9.76-54.45.05-194.74,0-280.35.01-13.2-.03-26.7.05-39.08-.02-8.61-.04-17.15-.68-25.08-4.13l-.15-.07Z"/>
  <path class="st2" d="M2045.54,4.41c-8.12,8.84-3.41,23.32-4.62,34.75.02,26.54.06,54.4.03,82.12.01,84.55-.02,227.52,0,270.93-.11,7.45.33,13.07,5.28,19.94,16.72,20.47,40.93,35.99,60.49,53.57,11.78,9.4,22.87,20.66,37.17,26.07,29.4,8.2,60.93,2.42,91.27,4.08,27.37-.26,55.31.56,82.54-.43,17.9-.58,32.41-10.84,45.35-22.25,21.06-18.42,48.3-37.97,67.48-58.04,5.56-6.79,7.12-12.08,7.09-19.58-1.98-71.73,4.82-287.32-2.49-388.56-2.72-5.9-8.05-7.28-13.86-7.12-44.53.16-152.15-.43-249.97-.38-43,.17-80.33.06-111.65.9-4.95.2-10.52,1.15-14.03,3.93l-.08.07Z"/>
  <path class="st6" d="M2022.9,489.86c-8.82,10.75-26.6,8.11-39.52,8.62-19.2,0-40.01,0-59.04,0-16.13.08-37.58,1.12-39.27-20.06-.54-8.88,4.51-17.4,13.14-20.15,4.58-1.64,10.1-2.08,15.83-2.23,24.41-.36,52.51-.06,76.64-.05,9.9.21,21.52-.65,29.45,6.01,7.56,6.4,8.98,19.79,2.87,27.75l-.1.13Z"/>
  <path class="st6" d="M1991.65,86.33c7.54,7.21,6.49,17.56,6.77,29.48,0,8.91,0,17.77.01,26.72,0,26.02.03,52.03,0,74.31-.14,10.72.81,21.89-7.35,28.11-10.14,7.04-23.63,4.99-35.44,5.42-6.89-.04-14.26.1-20.77-.52-13.97-1.15-20.96-8.33-21.29-22.69-.45-35.79-.17-83.47-.18-118.13.06-8.52.21-18.83,7.81-23.95,8.46-5.37,18.22-4.65,28.79-4.89,12.6.55,31.89-2.27,41.54,6.05l.11.1Z"/>
  <path class="st2" d="M1564.44,1681.94c-14.7-107.54-1.32-281.85-4.9-390.47,2.04-24.26,27.31-37.27,43.78-52.54,26.38-20.22,50.33-51.49,86.93-48.14,65.49.24,148.88-.54,204.33.29,13.23.45,26.66,8.45,37.01,17.31,19.9,16.46,39.7,32.98,59.37,49.46,13.25,9.96,22.25,24.56,21.56,41.56.39,110.7-.08,244.95.07,352.77-.53,10.89,1.62,22.38-4.08,31.44-71.86,9.89-307.04-.15-423.93,3.12-6.79.12-15.72-.21-20.06-4.7l-.08-.08Z"/>
  <path class="st2" d="M2186.89,1525.18c-4.54-7.09-4.13-17.02-4.23-25.42.02-43.25-.03-100.57,0-144.74-.02-17.23.02-32.09,0-47.79-.9-16,1.76-30.72,14.06-42.31,17.98-16.85,37.85-31.96,56.66-48.08,10.31-8.47,20.79-18.13,33.51-22.49,8.83-3.16,18.21-3.54,27.61-3.58,59.21-.01,132.12.08,186.97.14,13.07-.13,26.32.36,38.08,6.8,22.83,13.95,43.44,34.84,64.33,51.21,20.45,16.65,34.81,28.05,32.42,56.25-.04,66.81.25,142.07-.37,208.44-.25,6.03-1.64,13.98-7.69,15.92-49.39,4.93-169.29.72-280.56,1.47-36.19.09-75.44.41-110.94.37-8.39.02-17.05.01-25.26.02-8.66-.24-18.94,1.51-24.51-6.11l-.07-.1Z"/>
  <path class="st2" d="M2810.59,1524.75c-4.88-6.35-4.09-15.89-4.24-23.75,0-25.16-.15-54.48-.07-80.64.09-39.8-.14-80.02.09-119.71.04-11.77,2.87-23.37,10.82-32.33,17.82-18.27,38.97-33.15,58.24-49.97,13.42-10.96,28.71-25.91,46.41-27.12,67.55.14,204.29-1.83,295.03.49,7.29,1.1,14.26,3.76,20.91,7.91,13.67,9.03,25.22,20.13,38.19,30.54,15.49,13.68,32.57,25.2,46.14,40.6,6.07,7.52,8.3,15.15,8.48,24.24-.59,63.7,2.36,168.11-1.36,227.75-1.2,4.31-3.38,6.89-6.41,7.84-49.87,1.16-201.72.69-339.93,1.08-61.75-.16-116.01-.34-157.76-1.49-5.33-.21-11.18-1.38-14.46-5.35l-.08-.09Z"/>
  <path class="st3" d="M4398.97,1857.94c2.22-90.22-3.16-214.11,3.63-289.95,3.83-23.93,32.16-47.82,47.25-68.38,19.66-23.26,39.2-47,60.83-68.31,17.54-16.85,39.83-28.86,60.21-42.45,28.19-18.15,58.07-37.33,86.12-54.9,10.36-6,18.15-11.68,27.86-12.89,38.94-2.18,119.37-1.46,219.65-1.39,130.6.54,256.11.85,378.92.38,27.71-.03,42.84-2.56,65.35,3.26,68.25,26.55,137.54,61.83,205.4,91.46,13.08,6.1,23.88,12.7,34.36,22.7,28.8,28.03,56.84,58.65,84.82,87.14,11.85,12.29,27.73,26.83,31.06,43.46,1.9,78.16.11,279.87.45,395.92-.13,7.19-.3,20.72-8.81,20.27-190.52-1.95-966.35,2.9-1271.78-1.08-18.75.62-24.26-10.76-24.07-28.69-.8-31.55-1.06-64.72-1.26-96.35v-.19Z"/>
  <polygon class="st1" points="3444.09 1984.25 3444.09 1559.44 3557.24 1458.16 3444.09 1559.44 3444.09 1984.25"/>
  <path class="st0" d="M3338.05,1531.69c-379.28-1.55-899.49.28-1281.5-.62-41.91-1-43.96,7.02-43.91,45.89-.3,25.88.3,55.76-.21,80.94-.52,11.75.94,29.07-14.94,28.71-500.41.95-975.92-.16-1505.14.22-6.84-.21-10.12-.24-10.16-11.06-2.32-110.54,3.61-306.37-2.25-398.22-1.32-3.22-3.55-5.96-7.21-9.49-77.04-68.08-225.17-194.7-289.26-251.96-9.76-8.49-7.63-21.25-8.15-33.42.3-76.74-.23-169.61,0-248.67-.2-13.99.13-26.72.02-39.95.53-13.18-1.23-25.44,11.93-32.45,95.27-63.41,199.39-131.41,294.32-194.29,37.16-24.2,56.56-37.15,77.24-51.36,8.42-5.51,7.9-14.72,8.07-24.33-.04-81.25.52-301.82-.35-382,.12-11.27-9.83-9.63-18.97-9.84C458.99,2.44,81.34-4.14,1.28,1.88c-5.3,192.44-11,565.94-12.94,707.92-.93,356.5,3.63,870.94,0,1283.39,106.48,22.09,3217.84-16.51,3340.26-8.92,6.98-.18,16.35.42,22.57-4.06,5.35-3.63,8.48-12.4,7.89-20.12-.35-83.99.7-331.15-.3-410.26-1.03-12.15-8.9-17.49-20.62-18.12h-.09ZM3330.04,1896.49c-116.01,2.75-477.97,1.29-522.67.49-.83-.71-.99-2.25-1.05-5.47-.17-64.2.07-169.73-.02-240.35.01-14.31-.02-25.04.02-30.56.29-4.43-.62-6.76,5.46-6.39,49.92.82,465.66-1.51,517.95.78.94.93.95,3.25.98,8.29-.65,77.19,1.23,196.82-.65,273.2v.03Z"/>
  <path class="st2" d="M5872.38,1978.28c-2.95-4.11-4.05-10.13-4.26-15.72-.8-32.84-.42-70.71-.57-112.2.82-68.13-1.24-133.19,1.19-195.25,7.53-31.95,35.16-56.06,52.77-82.8,11.42-14.94,22.18-30.91,36.24-43.51,14.23-12.56,30.4-22.25,45.72-33.25,118.14-81.92,360.37-249.55,417.7-289.35,6.33-4.21,9.37-8.57,11.39-17.36,5.32-57.4.49-118.19,2.07-178.73,2.04-17.67-6.85-46.13,14.27-53.3,79.8-3.04,257.16.1,331.07-.94,6.21-.13,13.18.2,17.37,4.77,16.27,303.67.6,683.92,5.74,999.03-.03,11.5-4.13,21.02-15.36,23.28-258.73,3.5-521.43.33-781.75,1.22-40.52.02-79.02-.2-116.07-.09-6.25-.03-13.39-.5-17.45-5.71l-.07-.09Z"/>
  <path class="st2" d="M5221.44,17.56c-3.71,4.46-5.03,11.34-5.2,17.67-1.24,107.82-.25,245.23-.46,346.1-1.07,33.27,8.77,46.94,34.18,67.58,11.92,10.02,23.95,19.95,35.91,29.94,9.38,7.61,17.6,14.62,26.03,20.2,8.52,5.45,12.02,7.18,19.21,8.55,123.37,23.32,667.8,121.4,919.86,167.36,19.45,5.75,37.3-8.91,51.75-20.61,143.82-111.37,398.64-321.44,491.55-387.01,3.25.11,5.74,3.43,7.16,9.69.2.89.39,1.83.55,2.81,1.29,8.04,1.07,16.41,1.13,24.6.06,21.52.08,44.09.03,66.08-.56,16.66,1.67,39.19-10.16,51.84-87.98,66.57-350,227.26-443.91,294.83-4.39,3.85-7.86,8.8-10.03,15.61-3.84,12.27-3.44,26.29-3.61,39.2.14,17.63-.42,35.02.68,52.42,1.8,20.07,8.25,28.57,28.96,27.97,97.76,1.54,280.96-.14,395.1.44,8.04,0,17.12.16,24.43-1,14.68-2.29,19.5-8.1,18.64-23.63-.08-209.1-.1-677.53-.11-800.95.08-4.2-.19-8.76-3.51-11.75-1.08-1.12-2.83-2.03-4.45-2.72-365.81-5.59-1125.96-4.56-1555.87-1.37-7.5.39-13.66,1.37-17.79,6.03l-.08.09Z"/>
  <g>
    <path class="st2" d="M3161.04.32c-2.63-.38-5.41-.49-8.13-.39-130.6-.7-354.77.21-507.88-.15-11.45.69-25.14-2.78-32.65,5.14l-.07.09c-3.57,4.95-3.92,12.57-4.08,18.9-.75,68.32-.67,156.54-.5,228.46,3.65,58.21-8.62,147.19,9.05,164.36,26.33,25.26,58.06,50.65,86.66,72.39,86.6,18.13,316.45,1.54,452.19,6.35,1.99-.02,3.77-.2,5.4-.48V.32Z"/>
    <path class="st2" d="M3741.37,23.92c-.16-6.34-.5-13.96-4.08-18.9l-.07-.09c-7.51-7.92-21.19-4.45-32.65-5.14-153.11.35-377.28-.55-507.88.15-2.44-.09-4.93-.02-7.31.27v494.95c1.4.2,2.92.31,4.58.33,135.74-4.81,365.59,11.78,452.19-6.35,28.53-21.65,60.41-47.25,86.65-72.39,6.47-7.05,9.39-15.54,8.8-24.66-.05-28.44.13-80.84.25-139.71.17-71.92.25-160.14-.5-228.46Z"/>
  </g>
  <g>
    <path class="st2" d="M4463.86,2.06h8.96c-.97-.46-2.05-.79-3.26-.98-142.96,1.44-390.86-10.2-552.46,4.21l-.09.08c-4.56,4.6-4.93,12.23-5.1,18.7-1.2,68.28-1.76,156.51-2.07,228.4,3.06,71.77-7.45,115.32,3.71,158.44,10.58,15.15,26.38,25.04,40.19,37.48,16.12,13.23,34.13,29.46,50.53,40.55,87.08,18.57,318.6,1.61,455.12,6.54,1.61.02,3.09-.06,4.46-.25V2.06Z"/>
    <path class="st2" d="M5047.62,252.48c-.31-71.89-.87-160.12-2.07-228.4-.17-6.47-.54-14.1-5.1-18.7l-.09-.08c-161.6-14.42-409.5-2.77-552.46-4.21-1.2.19-2.29.52-3.26.98h7.56v492.93c1.75.34,3.68.52,5.86.49,136.52-4.93,368.04,12.03,455.12-6.54,16.4-11.1,34.4-27.33,50.53-40.55,13.81-12.43,29.62-22.32,40.19-37.48,11.16-43.12.65-86.67,3.71-158.44Z"/>
  </g>
  <path class="st3" d="M4398.6,1894.81c-.33,2.15-.4,2.69-2.12,2.82-232-.23-722.09.5-951.08-.25-.33-.2-.57-.56-.75-1.23-.14-.54-.25-1.27-.33-2.27-.13-3.74-.29-7.95-.23-11.9.35-14.13-.53-30.46.32-44.15.39-2.85.95-2.72,2.91-2.76,55.17,1.83,898.87-3.52,951.11,1.86.51,4.37.47,9.38.47,13.99-.33,14.06.5,30.21-.3,43.84v.07Z"/>
  <g>
    <path class="st2" d="M921.21,1684.32v-492.27c-95.77-3.45-249.4-.41-321.85-1.07-32.01,3.68-59.94,40.33-85.91,58.76-12.23,10.78-29.61,21.76-31.13,39.24,4.09,77.44-9.76,282,5.11,392.71l.08.09c11.02,9.38,40.06,3.46,57.21,5.06,43.53.04,88.25.14,131.53.03,79.89-.38,160.31.66,239.45-.38,3.66-.02,6.73-.81,9.31-2.16h-3.8Z"/>
    <path class="st2" d="M1388.69,1288.98c-1.52-17.47-18.89-28.45-31.13-39.24-25.97-18.43-53.91-55.09-85.91-58.76-72.52.67-226.34-2.39-322.1,1.08v492.26h-3.55c2.57,1.35,5.65,2.14,9.31,2.16,79.14,1.04,159.56,0,239.45.38,43.28.11,88,.01,131.53-.03,17.15-1.61,46.19,4.31,57.21-5.06l.08-.09c14.87-110.7,1.02-315.27,5.11-392.71Z"/>
  </g>
  <g>
    <path class="st2" d="M3871.57,1244.39c1.16,6.31,4.11,12.56,7.38,18.13,3.83,6.62,7.81,13.15,11.72,19.72,23.31,38.99,47.03,78.67,70.44,117.85,7.28,11.78,13.67,23.88,21.58,35.03,1.67,2.28,3.51,4.35,5.5,6.2l117.85-196.93h-234.46Z"/>
    <path class="st2" d="M4124.75,1233.06h241.88c-1.1-6.07-3.98-11.76-7.3-17.12-29.41-48.35-77.01-130.54-106.02-176.47-2.87-3.65-6.33-6.67-10.71-8.81l-.14-.07c-4.19-2.05-9.25-3.32-14.85-3.92-30.13-.68-66.96-.73-102.86-.65v207.04Z"/>
    <path class="st2" d="M4113.41,1254.15l-115.86,193.6c3.44,1.63,7.15,2.69,11.1,3.09,29.53.6,66.9.67,104.76.61v-197.3Z"/>
    <path class="st2" d="M4124.75,1244.39v207.03c32.42-.07,64.66-.19,92.13-.13,8.33-.02,18.5-.34,24.96-3.55,5.32-2.45,9.33-6.7,12.68-11.6,18.26-28.15,42.33-69.77,66.49-110.43,15.7-26.9,27.6-46.29,40.46-68.18,2.3-4.09,4.11-8.58,5-13.15h-241.71Z"/>
    <path class="st2" d="M4112.82,1233.06l.59-.99v-206.02c-34.64.1-67.66.28-92.04.09-9.09.02-18.43-.38-26.48,4.54-13.06,8.21-20.15,24.77-28.35,37.61-29.55,50.28-62.52,102.93-91.38,153.79-1.7,3.63-2.95,7.3-3.6,10.98h241.24Z"/>
  </g>
  <path class="st8" d="M4418.4,1892.44c-.33,1.97-.4,2.46-2.12,2.58-231.49-.21-720.49.46-948.96-.23-.33-.18-.57-.51-.75-1.13-.14-.49-.25-1.16-.33-2.08-.13-3.42-.29-7.28-.23-10.89.35-12.94-.53-27.89.32-40.43.39-2.61.95-2.49,2.91-2.53,55.04,1.68,896.87-3.22,949,1.7.51,4,.47,8.59.47,12.81-.33,12.87.5,27.66-.3,40.14v.06Z"/>
</svg>