<svg width="6804" height="1985" viewBox="0 0 6804 1985" fill="none" xmlns="http://www.w3.org/2000/svg">
<g clip-path="url(#clip0_294_9)">
<path d="M6816.34 -0.0302734H-1.05957V2048.59H6816.34V-0.0302734Z" fill="#9FBB99"/>
<path d="M1564.08 1687.86C1549.35 1580.66 1562.76 1406.89 1559.17 1298.61C1561.21 1274.43 1586.52 1261.45 1603.02 1246.24C1629.44 1226.08 1653.42 1194.91 1690.08 1198.25C1755.67 1198.49 1839.19 1197.72 1894.72 1198.53C1907.97 1198.98 1921.42 1206.96 1931.79 1215.79C1951.72 1232.19 1971.55 1248.67 1991.25 1265.09C2004.52 1275.03 2013.53 1289.57 2012.84 1306.52C2013.23 1416.87 2012.76 1550.7 2012.91 1658.19C2012.38 1669.04 2014.53 1680.5 2008.82 1689.53C1936.86 1699.39 1701.32 1689.38 1584.25 1692.63C1577.45 1692.75 1568.5 1692.43 1564.16 1687.94L1564.08 1687.86Z" fill="#D8E9D6" stroke="#6D8967" stroke-width="6" stroke-miterlimit="10"/>
<path d="M986.941 697.389C1025.12 697.039 1073.75 696.999 1110.79 697.349V697.35C1117.51 697.62 1124.38 699.053 1128.23 704.279L1128.59 704.798C1131.22 708.939 1132.37 713.409 1132.88 718.178C1133.4 722.962 1133.28 727.99 1133.4 733.299C1133.27 736.421 1133.34 739.998 1133.4 743.73C1133.45 747.474 1133.48 751.383 1133.27 755.192C1132.86 762.839 1131.48 769.962 1127.47 774.52L1127.38 774.624L1127.27 774.745C1123.79 778.314 1119.57 779.876 1114.71 780.572C1109.78 781.282 1104.27 781.088 1098.27 781.229L1071.56 781.24C1045.54 781.24 1019.53 781.27 997.255 781.24H997.256C991.858 781.17 986.449 781.371 981.588 780.579C976.756 779.792 972.553 778.033 969.55 774.103C966.105 769.14 964.869 763.337 964.45 757.262C964.241 754.224 964.236 751.13 964.258 748.047C964.277 745.354 964.316 742.666 964.253 740.049L964.22 738.932C964.259 732.028 964.121 724.702 964.737 718.228L964.738 718.223C965.332 711.279 967.371 706.184 970.971 702.775C974.57 699.367 979.805 697.573 986.942 697.39L986.941 697.389Z" fill="#6D8967" stroke="#6D8967"/>
<path d="M1270.4 697.389C1308.58 697.039 1357.21 696.999 1394.25 697.349V697.35C1400.97 697.62 1407.84 699.053 1411.69 704.279L1412.05 704.798C1414.68 708.939 1415.82 713.409 1416.34 718.178C1416.79 722.369 1416.76 726.749 1416.82 731.34L1416.86 733.321C1416.73 736.449 1416.8 740.019 1416.85 743.738C1416.91 747.478 1416.94 751.379 1416.74 755.182C1416.33 762.81 1414.95 769.92 1410.94 774.514L1410.84 774.623L1410.72 774.757C1407.24 778.317 1403.02 779.876 1398.17 780.572C1393.24 781.282 1387.73 781.088 1381.73 781.229L1355.02 781.24C1329 781.24 1302.99 781.27 1280.71 781.24H1280.72C1275.32 781.17 1269.91 781.371 1265.05 780.579C1260.22 779.792 1256.01 778.033 1253.01 774.103C1249.56 769.14 1248.33 763.337 1247.91 757.262C1247.7 754.224 1247.7 751.13 1247.72 748.047C1247.74 745.354 1247.78 742.666 1247.71 740.049L1247.68 738.932C1247.72 732.028 1247.58 724.702 1248.2 718.228L1248.2 718.223C1248.79 711.279 1250.83 706.184 1254.43 702.775C1258.03 699.367 1263.27 697.573 1270.4 697.39L1270.4 697.389Z" fill="#6D8967" stroke="#6D8967"/>
<path d="M1667.25 697.389C1705.43 697.039 1754.06 696.999 1791.1 697.349V697.35C1797.82 697.62 1804.69 699.053 1808.54 704.279L1808.9 704.798C1811.53 708.939 1812.68 713.409 1813.19 718.178C1813.64 722.369 1813.61 726.749 1813.67 731.34L1813.71 733.321C1813.58 736.439 1813.65 740.007 1813.71 743.73C1813.76 747.474 1813.79 751.383 1813.58 755.192C1813.17 762.839 1811.79 769.962 1807.78 774.52L1807.69 774.624L1807.58 774.745C1804.1 778.314 1799.88 779.876 1795.03 780.572C1790.09 781.282 1784.58 781.088 1778.58 781.229L1751.87 781.24C1725.85 781.24 1699.84 781.27 1677.57 781.24H1677.57C1672.17 781.17 1666.76 781.371 1661.9 780.579C1657.07 779.792 1652.86 778.033 1649.86 774.103C1646.42 769.14 1645.18 763.337 1644.76 757.262C1644.55 754.224 1644.55 751.13 1644.57 748.047C1644.59 745.354 1644.63 742.666 1644.56 740.049L1644.53 738.932C1644.57 732.028 1644.43 724.702 1645.05 718.228L1645.05 718.223C1645.64 711.279 1647.68 706.184 1651.28 702.775C1654.88 699.367 1660.12 697.573 1667.25 697.39L1667.25 697.389Z" fill="#6D8967" stroke="#6D8967"/>
<path d="M1950.72 696.769C1988.9 696.419 2037.53 696.379 2074.57 696.729V696.729C2081.29 697 2088.16 698.432 2092.01 703.659L2092.37 704.178C2095 708.319 2096.15 712.789 2096.66 717.558C2097.12 721.749 2097.08 726.128 2097.14 730.72L2097.18 732.701C2097.05 735.829 2097.12 739.398 2097.17 743.118C2097.23 746.858 2097.26 750.759 2097.06 754.562C2096.65 762.19 2095.27 769.3 2091.26 773.894L2091.16 774.004L2091.05 774.123C2087.57 777.693 2083.35 779.255 2078.5 779.952C2073.56 780.661 2068.05 780.468 2062.05 780.609L2035.34 780.62C2009.32 780.62 1983.31 780.65 1961.04 780.62H1961.04C1955.64 780.55 1950.23 780.751 1945.37 779.959C1940.54 779.172 1936.33 777.413 1933.33 773.482C1929.89 768.519 1928.65 762.717 1928.23 756.642C1928.02 753.604 1928.02 750.51 1928.04 747.427C1928.06 744.734 1928.1 742.046 1928.03 739.429L1928 738.312C1928.04 731.408 1927.9 724.082 1928.52 717.607L1928.52 717.603C1929.11 710.659 1931.15 705.564 1934.75 702.155C1938.35 698.747 1943.59 696.953 1950.72 696.77L1950.72 696.769Z" fill="#6D8967" stroke="#6D8967"/>
<path d="M2234.18 696.769C2272.36 696.419 2320.99 696.379 2358.03 696.729V696.729C2364.75 697 2371.62 698.432 2375.47 703.659L2375.83 704.178C2378.46 708.319 2379.61 712.789 2380.12 717.558C2380.58 721.749 2380.54 726.128 2380.6 730.72L2380.64 732.701C2380.51 735.829 2380.58 739.398 2380.63 743.118C2380.69 746.858 2380.72 750.759 2380.52 754.562C2380.11 762.19 2378.73 769.3 2374.72 773.894L2374.62 774.003L2374.5 774.137C2371.02 777.697 2366.8 779.256 2361.96 779.952C2357.02 780.661 2351.51 780.468 2345.51 780.609L2318.8 780.62C2292.78 780.62 2266.77 780.65 2244.5 780.62H2244.5C2239.1 780.55 2233.69 780.751 2228.83 779.959C2224 779.172 2219.79 777.413 2216.79 773.482C2213.34 768.519 2212.11 762.717 2211.69 756.642C2211.48 753.604 2211.48 750.51 2211.5 747.427C2211.52 744.734 2211.56 742.046 2211.49 739.429L2211.46 738.312C2211.5 731.408 2211.36 724.082 2211.98 717.607L2211.98 717.601C2212.55 710.689 2214.6 705.585 2218.21 702.163C2221.83 698.742 2227.08 696.933 2234.18 696.77L2234.18 696.769Z" fill="#6D8967" stroke="#6D8967"/>
<path d="M3336.14 1603.21H2801.13V1901.72H3336.14V1603.21Z" fill="#6D8967"/>
<path d="M4831.11 1000.52L4992.42 973.24" stroke="#6D8967" stroke-width="5" stroke-miterlimit="10"/>
<path d="M5439.07 1051.99L5600.38 1085.21" stroke="#6D8967" stroke-width="5" stroke-miterlimit="10"/>
<path d="M2517.65 696.769C2555.83 696.419 2604.46 696.379 2641.5 696.729V696.729C2648.22 697 2655.09 698.432 2658.94 703.659L2659.3 704.178C2661.93 708.319 2663.08 712.789 2663.59 717.558C2664.11 722.341 2663.99 727.37 2664.11 732.679C2663.98 735.801 2664.05 739.378 2664.11 743.11C2664.16 746.854 2664.19 750.763 2663.98 754.572C2663.57 762.216 2662.19 769.336 2658.19 773.894L2658.09 774.003L2657.97 774.137C2654.49 777.697 2650.27 779.256 2645.42 779.952C2640.49 780.661 2634.98 780.468 2628.98 780.609L2602.27 780.62C2576.25 780.62 2550.24 780.65 2527.96 780.62H2527.97C2522.57 780.55 2517.16 780.751 2512.3 779.959C2507.47 779.172 2503.26 777.413 2500.26 773.482C2496.81 768.519 2495.58 762.717 2495.16 756.642C2494.95 753.604 2494.95 750.51 2494.97 747.427C2494.99 744.734 2495.03 742.046 2494.96 739.429L2494.93 738.312C2494.97 731.408 2494.83 724.082 2495.45 717.607L2495.45 717.603C2496.04 710.659 2498.08 705.564 2501.68 702.155C2505.28 698.747 2510.52 696.953 2517.65 696.77L2517.65 696.769Z" fill="#6D8967" stroke="#6D8967"/>
<path d="M2688.75 963.59C2704.4 963.49 2721.14 963.539 2736.88 963.589V963.59C2747.07 963.73 2757.77 963.483 2766.71 968.376L2766.71 968.382L2766.77 968.416L2766.93 968.506L2766.94 968.51C2775.15 972.95 2780.69 981.203 2785.72 989.216L2786.71 990.814C2793.53 1001.86 2800.67 1013.67 2807.11 1024.22L2807.12 1024.23C2812.56 1032.89 2817.09 1040.49 2818.88 1048.37C2820.67 1056.2 2819.77 1064.33 2814.26 1074.06C2804.68 1090.76 2793.8 1108.11 2783.54 1124.65H2783.53C2779.12 1131.76 2774.77 1137.04 2769.4 1140.63C2764.21 1144.11 2758.03 1146.03 2749.85 1146.44L2749.05 1146.48C2727.66 1147.17 2705.34 1147.08 2684.1 1146.79H2684.11C2676.66 1146.55 2668.95 1145.7 2662.45 1142.38L2662.44 1142.37L2661.62 1141.95C2653.2 1137.46 2647.53 1129.14 2642.5 1121.02C2639.06 1115.46 2635.6 1109.82 2632.15 1104.15L2621.76 1087.11C2618.66 1081.71 2615.06 1076.3 2612.34 1070.59C2609.63 1064.89 2607.84 1058.97 2608.38 1052.63V1052.63C2608.69 1048.62 2610.15 1044.46 2612.14 1040.28C2614.13 1036.11 2616.63 1031.94 2619.01 1027.92C2624.79 1018.33 2630.64 1008.82 2636.46 999.26L2636.46 999.257C2643.96 986.752 2649.3 977.726 2656.62 971.865C2663.91 966.036 2673.21 963.306 2688.74 963.59H2688.75Z" fill="#6D8967" stroke="#6D8967"/>
<path d="M5679.33 1530.94L5965.59 1530.71" stroke="#6D8967" stroke-width="5" stroke-miterlimit="10"/>
<path d="M3101.96 589.38C3093 583.97 3082.2 584.36 3072.05 584.31C3053.59 584.28 3028.46 584.29 3007.73 584.31C2991.31 584.31 2971.88 584.34 2957.16 584.34C2942.06 584.19 2926.84 583.61 2915.71 595.68C2911.69 599.83 2908.76 604.66 2905.75 609.65C2887.67 639.93 2863.2 680.94 2844.63 712.12C2836.69 724.94 2830.87 737.19 2837.66 752C2855.77 786.51 2884.35 830.61 2903.19 863.14C2906.3 868.32 2909.31 873.69 2912.97 878.37C2916.04 882.28 2919.58 885.56 2924.01 887.9C2937.9 895.04 2955.04 892.3 2970.27 892.86C3008.37 892.36 3048.81 894.05 3087.13 892.15C3092.44 891.48 3097.37 890.06 3101.7 887.61C3108.59 883.8 3113.81 877.25 3118.02 870.48C3123.77 861.21 3129.26 851.75 3134.89 842.39C3150.99 815.2 3167.84 787.44 3183.66 760.34C3187.56 753.5 3190.96 745.1 3190.85 737.66C3190.85 733.15 3189.71 728.93 3187.86 724.76C3169.43 690.94 3143.39 649.98 3121.67 612.74C3116.55 604.1 3110.75 594.55 3102.12 589.48L3101.98 589.4L3101.96 589.38Z" fill="#6D8967" stroke="#6D8967" stroke-miterlimit="10" stroke-linecap="round"/>
<path d="M1223.62 435.58C1226.11 435.603 1228.53 437.358 1230.76 439.838C1232.97 442.298 1234.88 445.359 1236.37 447.782V447.781C1241.48 456.329 1246.71 465.279 1251.89 474.089L1257.04 482.835C1276 515.202 1298.44 552.516 1316.49 583.987H1316.49C1317.89 586.887 1319.69 590.291 1320.35 593.468C1320.67 595.046 1320.7 596.521 1320.28 597.82C1319.86 599.102 1318.99 600.255 1317.44 601.182C1315.77 602.098 1313.38 602.611 1310.48 602.86C1266 603.62 1189.9 602.899 1144.02 603.079C1141.02 603.003 1137.63 603.06 1134.6 602.509C1131.58 601.96 1129.06 600.833 1127.69 598.502C1126.32 595.423 1127.1 592.575 1128.44 588.918C1146.89 554.27 1171.07 516.279 1191.14 481.234C1197.5 470.47 1204.19 459.016 1210.5 448.416L1210.5 448.415C1212.04 445.913 1213.98 442.726 1216.22 440.139C1218.43 437.592 1220.84 435.745 1223.34 435.58H1223.62Z" fill="#6D8967" stroke="#6D8967"/>
<path d="M3824.49 434.97C3826.98 434.993 3829.4 436.748 3831.63 439.228C3833.84 441.688 3835.75 444.748 3837.24 447.172V447.171C3842.35 455.719 3847.58 464.668 3852.76 473.479L3857.91 482.225C3876.87 514.592 3899.31 551.906 3917.36 583.377H3917.36C3918.76 586.277 3920.56 589.681 3921.22 592.857C3921.54 594.435 3921.57 595.911 3921.15 597.21C3920.73 598.491 3919.86 599.645 3918.31 600.571C3916.64 601.488 3914.25 602.001 3911.35 602.25C3866.87 603.009 3790.77 602.289 3744.89 602.469C3741.89 602.393 3738.5 602.449 3735.47 601.898C3732.45 601.35 3729.93 600.223 3728.56 597.892C3727.19 594.813 3727.97 591.965 3729.31 588.308C3747.76 553.66 3771.94 515.668 3792.01 480.624C3798.37 469.86 3805.06 458.405 3811.37 447.806L3811.37 447.805C3812.91 445.302 3814.85 442.116 3817.09 439.528C3819.3 436.982 3821.71 435.134 3824.21 434.97H3824.49Z" fill="#6D8967" stroke="#6D8967"/>
<path d="M3709.73 696.569C3735.1 696.709 3765.54 696.239 3792.28 696.778V696.779C3799.26 697.044 3806.71 698.228 3812.62 701.245V701.25L3812.88 701.391L3813.04 701.471L3813.05 701.477C3818.15 704.048 3822.24 708.175 3825.9 712.934C3829.57 717.704 3832.78 723.037 3836.19 728.063V728.064C3843.76 739.594 3851.37 751.253 3858.92 762.823C3862.76 768.714 3866.56 774.53 3870.38 780.39V780.391C3874.94 787.448 3879.51 794.158 3881.58 801.063L3881.58 801.073L3881.59 801.082C3885.29 811.849 3880.62 822.881 3874.55 832.064L3874.55 832.071C3865.63 846.086 3855.44 861.46 3846 875.834L3842.01 881.926C3837.25 889.126 3832.96 895.928 3828.15 902.789C3824.63 907.731 3820.92 912.379 3815.97 915.726H3815.97L3815.97 915.729C3810.66 919.395 3804.65 921.01 3798.24 921.728C3791.82 922.446 3785.05 922.259 3778.2 922.35C3763.28 922.36 3748.03 922.359 3733.07 922.359H3706.39C3700.28 922.304 3693.92 922.474 3687.74 921.909C3681.57 921.345 3675.62 920.051 3670.34 917.094L3670.34 917.092L3669.49 916.605C3665.54 914.279 3662.07 911.114 3658.93 907.375L3658.26 906.564C3642.47 884.997 3628.24 861.109 3613.47 839.052L3613.46 839.05L3612.01 836.882C3604.96 826.238 3601.07 818.453 3600.65 810.705C3600.2 802.46 3603.67 794.152 3611.76 782.373L3611.77 782.362C3626.17 760.251 3640.91 737.556 3655.68 715.67L3655.69 715.667C3662.95 704.781 3670.63 700.098 3679.37 698.079C3688.17 696.046 3698.02 696.705 3709.73 696.569Z" fill="#6D8967" stroke="#6D8967"/>
<path d="M3693.53 1580.28C3685.28 1587.66 3672.02 1585.23 3661.59 1585.77C3643.22 1585.77 3624.04 1585.77 3605.54 1585.77C3597.16 1585.71 3588.72 1585.92 3580.38 1585.58C3570.43 1585.45 3560.75 1581.3 3558.73 1570.74C3555.85 1549.84 3558.17 1527.88 3557.45 1506.42C3557.54 1493.09 3557.23 1479.72 3557.66 1466.42C3557.9 1451.4 3564.8 1444.42 3579.88 1444.19C3593.19 1443.75 3606.55 1444.07 3619.88 1443.98C3641.4 1444.7 3663.23 1442.36 3684.23 1445.28C3694.71 1447.32 3698.92 1456.94 3699.04 1466.87C3699.37 1475.21 3699.18 1483.69 3699.23 1492.07C3699.23 1510.57 3699.23 1529.76 3699.23 1548.13C3698.69 1558.61 3701.14 1571.95 3693.63 1580.17L3693.52 1580.27L3693.53 1580.28Z" fill="#D8E9D6" stroke="#6D8967" stroke-width="5" stroke-miterlimit="10"/>
<path d="M3858.35 1607.07C3849.27 1602.07 3838.39 1602.33 3828.23 1602.19C3812.49 1602.14 3795.74 1602.09 3780.09 1602.19C3748.91 1601.62 3742.34 1613.15 3727.37 1638.1C3721.55 1647.66 3715.7 1657.17 3709.92 1666.76C3705.17 1674.8 3699.86 1683.5 3699.22 1691.69C3698.13 1704.61 3706.53 1715.75 3712.67 1726.47C3719.6 1737.82 3726.53 1749.27 3733.41 1760.38C3738.6 1768.76 3744.54 1777.48 3753.56 1781.92C3760.17 1785.3 3767.97 1786.15 3775.43 1786.39C3796.67 1786.68 3819 1786.77 3840.41 1786.08C3857.7 1785.41 3866.44 1778.29 3875.3 1764.01C3885.56 1747.48 3896.45 1730.12 3906.03 1713.41C3917.17 1693.75 3909.76 1680.37 3898.88 1663.06C3892.44 1652.51 3885.3 1640.7 3878.48 1629.65C3873.2 1621.18 3867.41 1611.98 3858.52 1607.17L3858.36 1607.08L3858.35 1607.07Z" fill="#D8E9D6" stroke="#6D8967" stroke-width="5" stroke-miterlimit="10"/>
<path d="M4722.7 877.45C4715.51 875.06 4706.7 875.5 4698.85 876.75C4662.27 882.82 4615.79 891.23 4584.27 896.64C4560.27 900.08 4550.09 906.01 4541.1 929.38C4528.56 961.48 4515.74 994.78 4503.32 1026.77C4492.79 1052.23 4492.91 1064.22 4511.79 1084.68C4531.79 1107.53 4551.89 1130.35 4572.05 1153.36C4578.76 1160.8 4585.09 1168.94 4592.62 1175.41C4606.55 1187.44 4621.31 1184.87 4637.93 1181.7C4674.51 1174.69 4724.1 1168.45 4761.05 1159.35C4765.26 1157.88 4769.01 1155.89 4772.17 1153.28C4777.91 1148.62 4781.62 1141.79 4784.51 1134.83C4797.23 1102.84 4812.22 1063.26 4824.54 1031.68C4835.19 1006.21 4833.84 995.09 4814.78 974.68C4791.93 948.79 4763.4 915.76 4740.1 889.74C4735.19 884.38 4729.77 879.71 4722.85 877.51L4722.69 877.46L4722.7 877.45Z" fill="#D8E9D6" stroke="#6D8967" stroke-width="5" stroke-miterlimit="10"/>
<path d="M5361.36 838.5C5357.81 835.34 5353.67 833.2 5349.06 831.76C5296.29 820.84 5215.31 808.26 5163.53 798.66C5139.77 793.76 5129.26 802.18 5115.17 820.22C5081.9 860.59 5027.86 922.56 4999.26 959.36C4995.82 964.07 4993.15 969.2 4992.53 974.89C4991.91 980.19 4993.02 986.01 4995.04 992.46C5012.64 1043.54 5040.19 1117.49 5057.12 1165.01C5061.9 1179.66 5069.32 1189.52 5084.9 1193.87C5096.46 1196.92 5108.96 1198.48 5120.98 1200.76C5166.9 1208.81 5213.16 1216.94 5258.89 1224.96C5277.06 1228.42 5292.5 1230.38 5306.64 1216.01C5342.43 1175.33 5378.19 1130.49 5413.17 1089.29C5422.36 1077.68 5435.12 1065.88 5438.39 1051.26C5439.4 1046.38 5438.98 1041.7 5437.79 1036.97C5422.01 989.87 5396.21 921.72 5376.63 866.38C5373.17 856.58 5369.19 845.38 5361.47 838.59L5361.35 838.48L5361.36 838.5Z" fill="#D8E9D6" stroke="#6D8967" stroke-width="5" stroke-miterlimit="10"/>
<path d="M5826.96 903.08C5819.77 900.69 5810.96 901.13 5803.11 902.38C5766.53 908.45 5720.05 916.86 5688.53 922.27C5664.53 925.71 5654.35 931.64 5645.36 955.01C5632.82 987.11 5620 1020.41 5607.58 1052.4C5597.05 1077.86 5597.17 1089.85 5616.05 1110.31C5636.05 1133.16 5656.15 1155.98 5676.31 1178.99C5683.02 1186.43 5689.35 1194.57 5696.88 1201.04C5710.81 1213.07 5725.57 1210.5 5742.19 1207.33C5778.77 1200.32 5828.36 1194.08 5865.31 1184.98C5869.52 1183.51 5873.27 1181.52 5876.43 1178.91C5882.17 1174.25 5885.88 1167.42 5888.77 1160.46C5901.49 1128.47 5916.48 1088.89 5928.8 1057.31C5939.45 1031.84 5938.1 1020.72 5919.04 1000.31C5896.19 974.42 5867.66 941.39 5844.36 915.37C5839.45 910.01 5834.03 905.34 5827.11 903.14L5826.95 903.09L5826.96 903.08Z" fill="#D8E9D6" stroke="#6D8967" stroke-width="5" stroke-miterlimit="10"/>
<path d="M4435.36 1163.49C4436.35 1163.06 4437.51 1162.98 4438.8 1163.18C4440.17 1163.39 4441.66 1163.91 4443.16 1164.61C4446.16 1166.02 4449.16 1168.13 4451.36 1169.82L4451.36 1169.82C4501.5 1207.83 4557.2 1250.14 4606.84 1287.87H4606.84C4610.02 1290.28 4613.54 1293.05 4616.05 1295.75L4616.06 1295.76C4619.07 1298.91 4620.27 1301.43 4620.35 1303.46C4620.42 1305.47 4619.4 1307.13 4617.64 1308.59C4615.88 1310.05 4613.41 1311.26 4610.73 1312.34C4608.05 1313.42 4605.23 1314.35 4602.7 1315.28C4550.72 1334.01 4444.41 1373.18 4393.68 1391.08C4391.33 1391.77 4388.91 1392.32 4386.85 1392.11C4385.84 1392 4384.93 1391.71 4384.18 1391.18C4383.43 1390.65 4382.79 1389.86 4382.34 1388.7C4381.49 1386.03 4381.48 1383.04 4381.85 1379.9C4382.22 1376.76 4382.97 1373.55 4383.6 1370.42C4396.94 1310.87 4412.72 1241.99 4426.4 1181.33L4426.4 1181.33C4427.08 1178.37 4428 1174.47 4429.4 1171.03C4430.8 1167.57 4432.64 1164.71 4435.06 1163.64L4435.36 1163.51V1163.49Z" fill="#6D8967" stroke="#6D8967"/>
<path d="M4915.95 1059.2H4916.16L4916.55 1059.23C4920.56 1059.64 4924.04 1063.05 4927.16 1067.4C4928.76 1069.63 4930.23 1072.06 4931.61 1074.38C4932.98 1076.68 4934.26 1078.88 4935.47 1080.63C4939.69 1087.51 4944.01 1094.54 4948.25 1101.48C4958.79 1118.66 4969.36 1136 4979.99 1153.3L4984.55 1160.71C4987.87 1166.14 4991.33 1171.65 4994.53 1177.05L4995.89 1179.35C4997.82 1182.79 4999.41 1185.92 5000.15 1189.36L5000.29 1190.05C5000.77 1192.93 5000.14 1194.89 4998.88 1196.27C4997.6 1197.68 4995.61 1198.55 4993.22 1199.07C4990.84 1199.59 4988.13 1199.75 4985.5 1199.79C4984.18 1199.81 4982.89 1199.8 4981.66 1199.79C4980.45 1199.78 4979.29 1199.77 4978.27 1199.8C4941.44 1199.56 4883.21 1201.06 4844.97 1199.62L4841.33 1199.47C4838.56 1199.23 4835.89 1198.63 4834 1197.41C4833.07 1196.8 4832.34 1196.05 4831.89 1195.11C4831.43 1194.18 4831.23 1193.03 4831.4 1191.62C4832.06 1187.68 4833.86 1183.79 4836.03 1179.96C4837.12 1178.05 4838.29 1176.16 4839.46 1174.29C4840.62 1172.43 4841.77 1170.59 4842.81 1168.78C4853.03 1152.17 4864.79 1133.02 4875.47 1115.54L4875.47 1115.54C4884.61 1100.63 4893.71 1085.69 4902.15 1072.04C4903.83 1069.44 4905.83 1066.27 4908.17 1063.72C4910.5 1061.19 4913.08 1059.36 4915.95 1059.2L4915.95 1059.2Z" fill="#6D8967" stroke="#6D8967"/>
<path d="M5474.63 1095.78C5483.59 1093.37 5493.66 1094.81 5508.83 1098.36L5508.84 1098.37C5522.32 1101.28 5537.11 1104.38 5550.61 1107.41C5559.62 1109.49 5569.09 1111.64 5576.03 1117.66L5576.02 1117.67L5576.61 1118.18C5583.13 1123.97 5586.73 1132.72 5589.65 1141.09L5589.65 1141.09C5593.91 1153.4 5598.08 1166.41 5602.09 1178.43L5602.09 1178.43C5604.56 1186.21 5607.76 1194.38 5609.09 1202.51C5610.42 1210.62 5609.87 1218.6 5604.87 1225.99L5604.86 1226C5600.93 1232.17 5595.68 1237.61 5590.64 1243.1C5580.76 1253.68 5570.51 1264.88 5560.37 1275.39L5560.37 1275.39C5552.98 1283.35 5546.48 1288.4 5539.19 1290.9C5531.9 1293.39 5523.75 1293.37 5513.03 1291.05L5513.03 1291.05C5495 1287.32 5476.71 1283.35 5458.9 1279.37L5458.9 1279.37C5450.64 1277.44 5442.06 1274.85 5435.74 1269.35L5435.73 1269.34L5435.37 1269.03C5428.31 1262.9 5424.68 1253.81 5421.62 1244.93L5421.01 1243.12C5418.85 1236.69 5416.7 1230.23 5414.56 1223.74L5408.1 1204.19C5406.25 1198.28 5404.08 1192.16 5402.91 1185.98C5401.75 1179.82 5401.59 1173.65 5403.76 1167.68L5403.76 1167.68C5405.42 1162.89 5408.62 1158.31 5412.36 1153.87C5416.11 1149.42 5420.33 1145.19 5424.09 1141.02C5431.71 1132.85 5439.32 1124.63 5446.99 1116.52L5447 1116.51C5457.78 1104.43 5465.69 1098.18 5474.63 1095.78Z" fill="#6D8967" stroke="#6D8967"/>
<path d="M4908.44 750C4912.02 748.318 4915.72 747.639 4919.7 748.471C4923.44 749.252 4927.47 751.376 4931.9 755.337L4932.79 756.154C4952.89 775.542 4972.68 796.142 4992.42 815.744C4994.23 817.733 4996.33 819.777 4998.46 821.881C5000.59 823.997 5002.76 826.181 5004.7 828.465C5008.47 832.899 5011.36 837.649 5011.65 842.919L5011.67 843.431V843.579C5011.5 849.013 5008.5 853.929 5004.58 858.514C5002.62 860.803 5000.45 862.993 4998.3 865.112C4996.17 867.22 4994.07 869.263 4992.27 871.245C4973.91 889.5 4955.47 908.583 4936.82 926.791L4933.09 930.42C4928.3 934.966 4923.97 937.398 4919.98 938.301C4916 939.202 4912.29 938.591 4908.71 936.964C4905.12 935.332 4901.65 932.679 4898.16 929.501C4894.67 926.321 4891.18 922.651 4887.53 918.986C4868.14 899.212 4848.08 879.845 4829.01 859.847H4829.01C4823.54 854.02 4820.85 848.7 4820.85 843.438C4820.84 838.178 4823.5 832.848 4829.01 827.003L4829.01 827.004C4848.02 807.045 4868.03 787.726 4887.39 768L4887.39 767.999C4890.99 764.401 4894.44 760.757 4897.91 757.567C4901.38 754.38 4904.85 751.687 4908.44 750Z" fill="#6D8967" stroke="#6D8967"/>
<path d="M4374.85 984.852C4380.2 983.413 4385.48 982.702 4390.71 983.757V983.758C4397.5 985.31 4402.01 989.982 4405.42 995.81C4408.83 1001.65 4411.09 1008.56 4413.42 1014.54V1014.54C4422.33 1038.8 4431.54 1063.44 4440.35 1087.73C4441.89 1092.28 4443.7 1097.29 4444.56 1102.28C4445.42 1107.27 4445.32 1112.18 4443.07 1116.53L4443.06 1116.54L4443.03 1116.61L4443.03 1116.61L4443 1116.67C4440.44 1121.19 4436.62 1124.16 4432 1126.57C4427.37 1128.98 4422.01 1130.79 4416.38 1133.03C4404.93 1137.18 4393.35 1141.4 4381.82 1145.38L4381.81 1145.38C4368.09 1150.26 4359.19 1150.67 4352.59 1146.68C4345.96 1142.67 4341.5 1134.14 4336.91 1120.64L4336.91 1120.63L4336.91 1120.62L4333.68 1112.01C4327.15 1094.52 4320.14 1075.62 4313.69 1057.87L4310.52 1049.1C4308.33 1042.95 4306.1 1036.97 4304.98 1031.4L4304.98 1031.39L4304.83 1030.72C4303.43 1023.8 4304.75 1018.39 4307.88 1014.06C4311.13 1009.56 4316.36 1006.19 4322.7 1003.55H4322.7C4334.42 998.659 4346.66 994.661 4358.64 990.255C4364.12 988.445 4369.47 986.296 4374.85 984.852Z" fill="#6D8967" stroke="#6D8967"/>
<path d="M668.53 491.96C662.89 489.52 657.07 485.61 651.97 481.58C635.3 468.15 617.62 452.32 601.36 438.41C592.78 430.85 583.17 423.59 575.97 414.78C568.66 405.88 566.72 398.42 567.05 388.22C567.59 310.28 565.67 84.2103 567.4 1.73032C567.76 -5.56968 568.95 -10.2097 576.32 -10.7697C669.81 -11.4697 1034.05 -14.5297 1127.18 -9.33968C1130.37 -7.21968 1132.44 -2.88968 1133.31 4.14032C1134.69 24.2803 1133.45 45.6503 1133.74 66.1003C1133.08 172.13 1135.57 334.33 1133.15 398.1C1132.82 401.19 1131.98 404.25 1130.36 407.37C1124.69 417.71 1113.77 425.94 1104.81 433.84C1084.57 450.78 1063.42 470.61 1042.44 486.28C1033.33 492.79 1023.67 496.7 1013.2 496.26C958.75 496.31 818.46 496.26 732.85 496.27C719.65 496.24 706.15 496.32 693.77 496.25C685.16 496.21 676.62 495.55 668.69 492.03L668.54 491.96H668.53Z" fill="#D8E9D6" stroke="#6D8967" stroke-width="5" stroke-miterlimit="10"/>
<path d="M1405.54 491.99C1399.9 489.57 1394.08 485.681 1388.98 481.671C1372.31 468.32 1354.63 452.59 1338.37 438.77C1329.79 431.26 1320.18 424.04 1312.98 415.29C1305.67 406.451 1303.73 399.03 1304.06 388.9C1304.6 311.44 1302.68 86.7705 1304.41 4.81049C1304.77 -2.44951 1305.96 -7.04951 1313.33 -7.60951C1406.82 -8.29951 1771.06 -11.3495 1864.19 -6.18951C1867.38 -4.07951 1869.45 0.220486 1870.32 7.21049C1871.7 27.2305 1870.46 48.4605 1870.75 68.7805C1870.09 174.15 1872.58 335.35 1870.16 398.72C1869.83 401.79 1868.99 404.83 1867.37 407.93C1861.7 418.21 1850.78 426.38 1841.82 434.23C1821.58 451.06 1800.43 470.78 1779.45 486.34C1770.34 492.81 1760.68 496.701 1750.21 496.26C1695.76 496.31 1555.47 496.26 1469.86 496.27C1456.66 496.24 1443.16 496.32 1430.78 496.25C1422.17 496.21 1413.63 495.56 1405.7 492.05L1405.55 491.98L1405.54 491.99Z" fill="#D8E9D6" stroke="#6D8967" stroke-width="5" stroke-miterlimit="10"/>
<path d="M2045.54 -3.11957C2037.42 5.86043 2042.13 20.5504 2040.92 32.1604C2040.94 59.1004 2040.98 87.3904 2040.95 115.53C2040.96 201.37 2040.93 346.52 2040.95 390.59C2040.84 398.15 2041.28 403.86 2046.23 410.84C2062.95 431.62 2087.16 447.38 2106.72 465.22C2118.5 474.76 2129.59 486.2 2143.89 491.69C2173.29 500.02 2204.82 494.15 2235.16 495.83C2262.53 495.57 2290.47 496.4 2317.7 495.39C2335.6 494.8 2350.11 484.39 2363.05 472.8C2384.11 454.1 2411.35 434.25 2430.53 413.88C2436.09 406.98 2437.65 401.62 2437.62 394.01C2435.64 321.19 2442.44 102.31 2435.13 -0.479568C2432.41 -6.46957 2427.08 -7.86957 2421.27 -7.70957C2376.74 -7.54957 2269.12 -8.14957 2171.3 -8.09957C2128.3 -7.92957 2090.97 -8.02957 2059.65 -7.18957C2054.7 -6.98957 2049.13 -6.02957 2045.62 -3.19957L2045.54 -3.12957V-3.11957Z" fill="#D8E9D6" stroke="#6D8967" stroke-width="5" stroke-miterlimit="10"/>
<path d="M1914.05 456.539C1938.45 456.179 1966.54 456.479 1990.67 456.489V456.49C1995.65 456.596 2000.98 456.433 2006.08 457.072C2011.17 457.71 2015.95 459.139 2019.81 462.381V462.382C2023.47 465.482 2025.67 470.301 2026.19 475.342C2026.71 480.32 2025.59 485.456 2022.71 489.301L2022.51 489.543C2018.23 494.765 2011.74 496.77 2004.62 497.513C2001.07 497.884 1997.38 497.937 1993.77 497.93C1990.16 497.922 1986.62 497.853 1983.38 497.979H1924.34C1916.24 498.02 1906.94 498.294 1899.44 495.945C1895.7 494.775 1892.45 492.963 1890.03 490.173C1887.61 487.387 1885.98 483.587 1885.57 478.38C1885.04 469.701 1889.98 461.417 1898.36 458.746L1898.37 458.743L1898.38 458.74C1902.88 457.129 1908.33 456.69 1914.05 456.54L1914.05 456.539Z" fill="#6D8967" stroke="#6D8967"/>
<path d="M1960.46 80.6973C1964.19 80.6402 1968.07 80.599 1971.85 80.7998C1979.2 81.1902 1986.08 82.4902 1990.77 86.2471L1991.21 86.6182L1991.31 86.71L1991.45 86.835C1995.01 90.3104 1996.57 94.5302 1997.26 99.374C1997.97 104.31 1997.78 109.811 1997.92 115.81H1997.92L1997.93 142.53C1997.93 168.549 1997.96 194.555 1997.93 216.833C1997.86 222.231 1998.06 227.641 1997.27 232.502C1996.48 237.337 1994.72 241.542 1990.78 244.546C1985.82 247.986 1980.02 249.221 1973.95 249.64C1970.91 249.849 1967.82 249.853 1964.74 249.831C1961.66 249.809 1958.59 249.761 1955.62 249.869C1948.72 249.829 1941.39 249.968 1934.92 249.352H1934.91C1928 248.783 1922.9 246.728 1919.47 243.114C1916.16 239.613 1914.36 234.579 1914.1 227.809L1914.08 227.148C1913.63 191.364 1913.91 143.697 1913.9 109.033C1913.93 104.764 1913.98 100.112 1914.96 95.8926C1915.94 91.6877 1917.83 87.9671 1921.48 85.502C1925.62 82.8718 1930.1 81.7243 1934.87 81.208C1939.65 80.6906 1944.68 80.8093 1949.99 80.6895C1953.15 80.8271 1956.74 80.7541 1960.46 80.6973Z" fill="#6D8967" stroke="#6D8967"/>
<path d="M2186.89 1533.74C2182.35 1526.46 2182.76 1516.28 2182.66 1507.67C2182.68 1463.31 2182.63 1404.53 2182.66 1359.22C2182.64 1341.55 2182.68 1326.31 2182.66 1310.21C2181.76 1293.8 2184.42 1278.7 2196.72 1266.82C2214.7 1249.53 2234.57 1234.04 2253.38 1217.51C2263.69 1208.82 2274.17 1198.91 2286.89 1194.44C2295.72 1191.2 2305.1 1190.81 2314.5 1190.76C2373.71 1190.75 2446.62 1190.84 2501.47 1190.9C2514.54 1190.76 2527.79 1191.27 2539.55 1197.87C2562.38 1212.18 2582.99 1233.6 2603.88 1250.39C2624.33 1267.46 2638.69 1279.16 2636.3 1308.08C2636.26 1376.6 2636.55 1453.79 2635.93 1521.86C2635.68 1528.05 2634.29 1536.2 2628.24 1538.19C2578.85 1543.24 2458.95 1538.93 2347.68 1539.7C2311.49 1539.8 2272.24 1540.12 2236.74 1540.08C2228.35 1540.1 2219.69 1540.09 2211.48 1540.1C2202.82 1539.85 2192.54 1541.65 2186.97 1533.83L2186.9 1533.73L2186.89 1533.74Z" fill="#D8E9D6" stroke="#6D8967" stroke-width="5" stroke-miterlimit="10"/>
<path d="M2810.59 1533.59C2805.71 1527.07 2806.5 1517.27 2806.35 1509.21C2806.35 1483.39 2806.2 1453.29 2806.28 1426.44C2806.37 1385.59 2806.14 1344.31 2806.37 1303.57C2806.41 1291.49 2809.24 1279.58 2817.19 1270.39C2835.01 1251.64 2856.16 1236.37 2875.43 1219.09C2888.85 1207.84 2904.14 1192.49 2921.84 1191.25C2989.39 1191.39 3126.13 1189.37 3216.87 1191.75C3224.16 1192.88 3231.13 1195.61 3237.78 1199.87C3251.45 1209.14 3263 1220.53 3275.97 1231.22C3291.46 1245.26 3308.54 1257.09 3322.11 1272.9C3328.18 1280.62 3330.41 1288.45 3330.59 1297.78C3330 1363.17 3332.95 1470.34 3329.23 1531.55C3328.03 1535.97 3325.85 1538.62 3322.82 1539.6C3272.95 1540.79 3121.1 1540.31 2982.89 1540.71C2921.14 1540.54 2866.88 1540.36 2825.13 1539.18C2819.8 1538.97 2813.95 1537.76 2810.67 1533.69L2810.59 1533.6V1533.59Z" fill="#D8E9D6" stroke="#6D8967" stroke-width="5" stroke-miterlimit="10"/>
<path d="M4398.97 1863.46C4401.19 1772.32 4395.81 1647.15 4402.6 1570.54C4406.43 1546.37 4434.76 1522.23 4449.85 1501.46C4469.51 1477.96 4489.05 1453.97 4510.68 1432.45C4528.22 1415.43 4550.51 1403.29 4570.89 1389.56C4599.08 1371.22 4628.96 1351.84 4657.01 1334.09C4667.37 1328.03 4675.16 1322.29 4684.87 1321.07C4723.81 1318.87 4804.24 1319.59 4904.52 1319.66C5035.12 1320.21 5160.63 1320.52 5283.44 1320.04C5311.15 1320.01 5326.28 1317.46 5348.79 1323.33C5417.04 1350.15 5486.33 1385.79 5554.19 1415.73C5567.27 1421.89 5578.07 1428.56 5588.55 1438.67C5617.35 1466.99 5645.39 1497.92 5673.37 1526.7C5685.22 1539.11 5701.1 1553.81 5704.43 1570.61C5706.33 1649.58 5704.54 1853.36 5704.88 1970.59C5704.75 1977.85 5704.58 1991.52 5696.07 1991.06C5505.55 1989.09 4729.72 1993.99 4424.29 1989.97C4405.54 1990.6 4400.03 1979.1 4400.22 1960.99C4399.42 1929.11 4399.16 1895.61 4398.96 1863.65V1863.46H4398.97Z" fill="#B9DCE6" stroke="#6D8967" stroke-width="5" stroke-miterlimit="10"/>
<path d="M3444.09 1984.25V1559.44L3557.24 1458.16" stroke="#6D8967" stroke-width="5" stroke-miterlimit="10"/>
<path d="M5872.43 1989.9C5869.44 1985.74 5868.33 1979.65 5868.12 1974C5867.31 1940.79 5867.7 1902.48 5867.55 1860.53C5868.38 1791.63 5866.29 1725.83 5868.76 1663.06C5876.38 1630.75 5904.32 1606.37 5922.14 1579.32C5933.69 1564.21 5944.57 1548.06 5958.8 1535.32C5973.2 1522.62 5989.55 1512.81 6005.04 1501.69C6124.54 1418.84 6369.55 1249.31 6427.54 1209.06C6433.95 1204.8 6437.02 1200.39 6439.06 1191.5C6444.44 1133.45 6439.56 1071.97 6441.15 1010.74C6443.21 992.87 6434.22 964.09 6455.58 956.84C6536.3 953.77 6715.7 956.94 6790.46 955.89C6796.74 955.76 6803.79 956.09 6808.03 960.71C6824.49 1267.83 6808.64 1652.4 6813.83 1971.09C6813.8 1982.72 6809.65 1992.34 6798.29 1994.63C6536.58 1998.17 6270.87 1994.97 6007.55 1995.86C5966.56 1995.88 5927.63 1995.66 5890.15 1995.77C5883.83 1995.74 5876.61 1995.27 5872.5 1989.99L5872.43 1989.9Z" fill="#D8E9D6" stroke="#6D8967" stroke-width="5" stroke-miterlimit="10"/>
<path d="M5221.48 -0.860195C5217.75 3.68981 5216.42 10.7298 5216.25 17.1998C5215.01 127.4 5216 267.83 5215.78 370.92C5214.7 404.92 5224.61 418.89 5250.17 439.99C5262.16 450.23 5274.27 460.38 5286.3 470.59C5295.74 478.37 5304.01 485.53 5312.49 491.24C5321.07 496.81 5324.58 498.58 5331.82 499.97C5455.95 523.8 6003.73 624.05 6257.34 671.02C6276.91 676.89 6294.87 661.91 6309.41 649.95C6454.11 536.12 6710.5 321.43 6803.99 254.42C6807.26 254.53 6809.77 257.93 6811.2 264.32C6811.41 265.23 6811.59 266.19 6811.76 267.2C6813.06 275.41 6812.84 283.97 6812.89 292.35C6812.95 314.34 6812.97 337.41 6812.92 359.89C6812.35 376.91 6814.6 399.94 6802.7 412.87C6714.18 480.9 6450.54 645.13 6356.06 714.2C6351.64 718.14 6348.15 723.19 6345.96 730.16C6342.1 742.71 6342.5 757.03 6342.33 770.22C6342.47 788.24 6341.91 806.01 6343.01 823.8C6344.83 844.31 6351.31 853 6372.15 852.39C6470.51 853.96 6654.84 852.25 6769.68 852.84C6777.77 852.84 6786.9 853.01 6794.26 851.81C6809.03 849.47 6813.88 843.53 6813.01 827.66C6812.93 613.95 6812.91 135.19 6812.9 9.0598C6812.98 4.7598 6812.92 2.2898 6812.92 -3.3902V-10.2002H6802.84C6798.83 -10.1802 6790.64 -10.1002 6786.62 -10.1602C6778.34 -10.2802 6770.93 -10.0102 6762.65 -10.1102C6745.12 -10.3402 6723.07 -9.6502 6705.54 -9.8402C6653.99 -10.3902 6613.53 -9.9602 6553.25 -9.8402C6496.83 -9.7302 6440.77 -9.5902 6384.39 -9.8002C6336.07 -9.9802 6283.25 -9.5102 6234.93 -9.6002C6184.92 -9.7002 6134.91 -9.7602 6084.9 -9.7802C6034.16 -9.8102 5983.41 -9.8002 5932.67 -9.7502C5882.16 -9.7102 5831.64 -9.6402 5781.13 -9.5302C5731.8 -9.4302 5682.48 -9.3002 5633.16 -9.1402C5585.98 -8.9902 5538.81 -8.8102 5491.63 -8.6002C5447.56 -8.4002 5403.5 -8.1802 5359.44 -7.9202C5319.45 -7.6902 5279.45 -7.4202 5239.46 -7.1202C5231.91 -6.7202 5225.72 -5.7202 5221.56 -0.950195L5221.48 -0.860195Z" fill="#D8E9D6" stroke="#6D8967" stroke-width="5" stroke-miterlimit="10"/>
<path d="M3160.81 -5.27027C3158.18 -5.66027 3155.4 -5.77027 3152.68 -5.67027C3022.08 -6.38027 2797.91 -5.46027 2644.8 -5.82027C2633.35 -5.12027 2619.66 -8.63027 2612.15 -0.620268L2612.08 -0.530268C2608.51 4.47973 2608.16 12.1897 2608 18.5997C2607.25 87.7397 2607.33 177.02 2607.5 249.81C2611.15 308.72 2598.88 398.77 2616.55 416.15C2642.88 441.71 2674.61 467.41 2703.21 489.41C2789.81 507.75 3019.66 490.97 3155.4 495.84C3157.39 495.82 3159.17 495.64 3160.8 495.35V-5.27027H3160.81Z" fill="#D8E9D6" stroke="#6D8967" stroke-width="5" stroke-miterlimit="10"/>
<path d="M3741.13 18.6098C3740.97 12.1998 3740.63 4.47975 3737.05 -0.520246L3736.98 -0.610246C3729.47 -8.63025 3715.79 -5.11025 3704.33 -5.81025C3551.22 -5.45025 3327.05 -6.37025 3196.45 -5.66025C3194.01 -5.75025 3191.52 -5.68025 3189.14 -5.39025V495.51C3190.54 495.71 3192.06 495.83 3193.72 495.85C3329.46 490.99 3559.31 507.77 3645.91 489.42C3674.44 467.51 3706.32 441.6 3732.56 416.15C3739.03 409.02 3741.95 400.42 3741.36 391.2C3741.31 362.42 3741.49 309.39 3741.61 249.81C3741.78 177.02 3741.86 87.7398 3741.11 18.5998L3741.13 18.6098Z" fill="#D8E9D6" stroke="#6D8967" stroke-width="5" stroke-miterlimit="10"/>
<path d="M4464.39 -9.2199H4473.35C4472.38 -9.6799 4471.3 -10.0299 4470.09 -10.2099C4327.15 -8.7499 4079.51 -20.5699 3917.63 -5.9399L3917.54 -5.8599C3912.98 -1.1999 3912.61 6.5301 3912.44 13.0901C3911.24 82.2701 3910.68 171.67 3910.37 244.51C3913.43 317.23 3902.92 361.36 3914.08 405.05C3924.66 420.4 3940.46 430.43 3954.27 443.02C3970.39 456.42 3988.4 472.86 4004.8 484.11C4091.88 502.93 4323.4 485.74 4459.92 490.73C4461.53 490.75 4463.01 490.67 4464.38 490.48V-9.2199H4464.39Z" fill="#D8E9D6" stroke="#6D8967" stroke-width="5" stroke-miterlimit="10"/>
<path d="M5048.15 244.5C5047.84 171.66 5047.28 82.2597 5046.08 13.0797C5045.91 6.51971 5048.05 -1.95029 5044.11 -10.2203L5032.81 -9.28029C4871.53 -14.6503 4631.39 -8.76029 4488.44 -10.2203C4487.24 -10.0303 4486.15 -9.69029 4485.18 -9.23029H4492.74V490.22C4494.49 490.56 4496.42 490.75 4498.6 490.72C4635.12 485.73 4866.64 502.91 4953.72 484.1C4970.12 472.86 4988.12 456.41 5004.25 443.01C5018.06 430.41 5033.87 420.39 5044.44 405.04C5055.6 361.35 5045.09 317.22 5048.15 244.5Z" fill="#D8E9D6" stroke="#6D8967" stroke-width="5" stroke-miterlimit="10"/>
<path d="M4398.6 1894.81C4398.27 1896.96 4398.2 1897.5 4396.48 1897.63C4164.48 1897.4 3674.39 1898.13 3445.4 1897.38C3445.07 1897.18 3444.83 1896.82 3444.65 1896.15C3444.51 1895.61 3444.4 1894.88 3444.32 1893.88C3444.19 1890.14 3444.03 1885.93 3444.09 1881.98C3444.44 1867.85 3443.56 1851.52 3444.41 1837.83C3444.8 1834.98 3445.36 1835.11 3447.32 1835.07C3502.49 1836.9 4346.19 1831.55 4398.43 1836.93C4398.94 1841.3 4398.9 1846.31 4398.9 1850.92C4398.57 1864.98 4399.4 1881.13 4398.6 1894.76V1894.83V1894.81Z" fill="#B9DCE6" stroke="#6D8967" stroke-width="5" stroke-miterlimit="10"/>
<path d="M921.13 1690.69V1192.08C823.42 1188.58 666.67 1191.67 592.74 1190.99C560.08 1194.71 531.58 1231.84 505.08 1250.51C492.6 1261.43 474.87 1272.55 473.32 1290.25C477.49 1368.68 463.36 1575.89 478.54 1688.02L478.62 1688.11C489.86 1697.61 519.49 1691.61 536.99 1693.24C581.41 1693.28 627.03 1693.38 671.19 1693.27C752.7 1692.89 834.75 1693.93 915.5 1692.88C919.23 1692.86 922.37 1692.06 924.99 1690.69H921.12H921.13Z" fill="#D8E9D6" stroke="#6D8967" stroke-width="5" stroke-miterlimit="10"/>
<path d="M1388.69 1290.25C1387.17 1272.55 1369.8 1261.43 1357.56 1250.51C1331.59 1231.84 1303.65 1194.71 1271.65 1190.99C1199.13 1191.67 1045.31 1188.57 949.55 1192.09V1690.7H946C948.57 1692.07 951.65 1692.87 955.31 1692.89C1034.45 1693.94 1114.87 1692.89 1194.76 1693.28C1238.04 1693.39 1282.76 1693.29 1326.29 1693.25C1343.44 1691.62 1372.48 1697.62 1383.5 1688.12L1383.58 1688.03C1398.45 1575.9 1384.6 1368.7 1388.69 1290.26V1290.25Z" fill="#D8E9D6" stroke="#6D8967" stroke-width="5" stroke-miterlimit="10"/>
<path d="M4124.75 1233.06H4366.63C4365.53 1226.99 4362.65 1221.3 4359.33 1215.94C4329.92 1167.59 4282.32 1085.4 4253.31 1039.47C4250.44 1035.82 4246.98 1032.8 4242.6 1030.66L4242.46 1030.59C4238.27 1028.54 4233.21 1027.27 4227.61 1026.67C4197.48 1025.99 4160.65 1025.94 4124.75 1026.02V1233.06Z" fill="#D8E9D6" stroke="#6D8967" stroke-width="5" stroke-miterlimit="10"/>
<path d="M4112.82 1233.06L4113.41 1232.07V1026.05C4078.77 1026.15 4045.75 1026.33 4021.37 1026.14C4012.28 1026.16 4002.94 1025.76 3994.89 1030.68C3981.83 1038.89 3974.74 1055.45 3966.54 1068.29C3936.99 1118.57 3904.02 1171.22 3875.16 1222.08C3873.46 1225.71 3872.21 1229.38 3871.56 1233.06H4112.8H4112.82Z" fill="#D8E9D6" stroke="#6D8967" stroke-width="5" stroke-miterlimit="10"/>
<path d="M4418.4 1892.44C4418.07 1894.41 4418 1894.9 4416.28 1895.02C4184.79 1894.81 3695.79 1895.48 3467.32 1894.79C3466.99 1894.61 3466.75 1894.28 3466.57 1893.66C3466.43 1893.17 3466.32 1892.5 3466.24 1891.58C3466.11 1888.16 3465.95 1884.3 3466.01 1880.69C3466.36 1867.75 3465.48 1852.8 3466.33 1840.26C3466.72 1837.65 3467.28 1837.77 3469.24 1837.73C3524.28 1839.41 4366.11 1834.51 4418.24 1839.43C4418.75 1843.43 4418.71 1848.02 4418.71 1852.24C4418.38 1865.11 4419.21 1879.9 4418.41 1892.38V1892.44H4418.4Z" fill="#B9DCE6"/>
<path d="M-3.0127 -10.5342C37.3727 -13.5091 153.016 -12.2512 269.765 -10.5723C386.913 -8.88761 505.156 -6.78059 549.444 -8.11035C550.589 -8.08431 551.746 -8.08695 552.886 -8.08984C554.033 -8.09276 555.164 -8.09598 556.264 -8.07031C558.469 -8.01883 560.513 -7.85187 562.256 -7.35547C563.992 -6.86119 565.398 -6.04841 566.371 -4.72363C567.345 -3.39651 567.93 -1.49431 567.9 1.26465V1.27539C568.77 81.7921 568.21 303.285 568.25 384.88C568.165 389.734 568.25 394.384 567.321 398.526C566.399 402.638 564.484 406.208 560.405 408.892L560.396 408.898C539.731 423.155 520.345 436.153 483.217 460.462L483.213 460.464C388.365 523.606 284.314 591.895 189.111 655.561C182.408 659.152 179.486 664.114 178.19 669.841C176.907 675.512 177.214 681.995 176.951 688.55L176.95 688.562V688.574C177.053 700.99 176.77 713.062 176.898 726.08L176.931 728.697C176.701 808.115 177.231 901.328 176.931 978.408V978.431C177.06 981.474 177.025 984.548 177.051 987.615C177.077 990.672 177.165 993.712 177.545 996.642C178.307 1002.51 180.247 1007.97 185.246 1012.34V1012.34C249.285 1069.83 397.34 1197 474.311 1265.36C477.912 1268.86 480.073 1271.54 481.356 1274.64C484.28 1320.73 484.262 1392.89 483.803 1467.42C483.357 1539.65 482.497 1614.1 483.498 1669.15L483.601 1674.42C483.626 1679.84 484.443 1682.79 486.314 1684.34C487.25 1685.12 488.4 1685.51 489.715 1685.72C491.023 1685.92 492.546 1685.97 494.245 1686.02H494.261C1023.11 1685.64 1498.32 1686.76 1998.39 1685.8C2002.45 1685.89 2005.46 1684.85 2007.68 1682.99C2009.88 1681.14 2011.24 1678.53 2012.1 1675.59C2012.96 1672.64 2013.32 1669.33 2013.51 1666.03C2013.69 1662.76 2013.7 1659.39 2013.83 1656.49V1656.48C2014.34 1631.21 2013.74 1601.14 2014.04 1575.2V1575.19C2014.03 1565.43 2014.15 1557.64 2014.98 1551.45C2015.82 1545.26 2017.36 1540.74 2020.14 1537.46C2022.91 1534.19 2026.97 1532.1 2032.99 1530.89C2039.01 1529.68 2046.95 1529.36 2057.41 1529.61H2057.42C2439.17 1530.51 2959.03 1528.67 3338.06 1530.23V1530.23H3338.14C3343.93 1530.55 3348.7 1532.03 3352.15 1534.88C3355.58 1537.72 3357.75 1541.97 3358.26 1547.96C3359.26 1627.43 3358.21 1875.56 3358.56 1959.91V1959.93L3358.56 1959.95C3358.86 1963.75 3358.23 1967.82 3356.88 1971.38C3355.53 1974.95 3353.46 1977.96 3350.9 1979.71L3350.89 1979.71L3350.89 1979.71C3347.88 1981.89 3344.09 1982.85 3340.14 1983.28C3336.19 1983.71 3332.16 1983.61 3328.65 1983.7C3298 1981.79 3080.71 1982.79 2770.41 1985C2460.05 1987.22 2056.59 1990.66 1653.63 1993.64C1250.67 1996.62 848.209 1999.15 539.838 1999.54C385.652 1999.74 254.99 1999.41 159.551 1998.33C111.831 1997.79 72.9193 1997.07 44.2764 1996.13C16.1687 1995.21 -1.99902 1994.09 -8.91699 1992.75C-5.2937 1578.64 -9.84952 1062.26 -8.91992 704.387C-6.99114 561.907 -8.29826 182.855 -3.0127 -10.5342ZM3327.06 1612.75C3264.63 1610.62 2861.24 1612.89 2812.16 1612.07C2810.63 1611.98 2809.49 1612.05 2808.63 1612.31C2807.75 1612.58 2807.16 1613.06 2806.81 1613.74C2806.47 1614.39 2806.37 1615.18 2806.31 1616.03C2806.29 1616.46 2806.27 1616.92 2806.26 1617.41C2806.24 1617.89 2806.23 1618.41 2806.19 1618.96L2806.19 1618.97V1618.99C2806.15 1624.53 2806.18 1635.31 2806.17 1649.68V1649.68C2806.26 1720.6 2806.02 1826.57 2806.19 1891.04V1891.05C2806.22 1892.67 2806.28 1893.9 2806.43 1894.82C2806.59 1895.74 2806.87 1896.45 2807.42 1896.92L2807.55 1897.04L2807.73 1897.04C2852.4 1897.85 3214.13 1899.31 3330.07 1896.55L3330.27 1896.54L3330.57 1896.25V1896.02C3332.45 1819.32 3330.57 1699.16 3331.22 1621.67H3331.22L3331.22 1621.67C3331.21 1619.15 3331.2 1617.28 3331.08 1615.92C3330.96 1614.59 3330.71 1613.6 3330.1 1613L3329.97 1612.86L3329.77 1612.85L3327.06 1612.75Z" fill="#6D8967" stroke="#6D8967"/>
<path d="M3325.83 1842.29C3321.43 1847.54 3313.46 1847.57 3306.88 1847.56C3179.8 1843.5 2900.62 1847.56 2824.44 1847.56C2806.34 1841 2806.37 1830.61 2806.34 1824.7C2806.21 1752.34 2806.25 1663.35 2806.36 1588.11C2806.65 1575.48 2808 1568.5 2824.44 1564.31C2906.13 1565.11 3239.8 1562.34 3321.79 1565.05C3328.53 1565.89 3330.09 1574.6 3330.33 1580.76C3330.88 1632.93 3330.61 1688.82 3330.92 1742.27C3330.8 1772.92 3331.11 1801.33 3330.21 1828.18C3329.92 1833.17 3328.82 1838.63 3325.89 1842.2L3325.81 1842.29H3325.83Z" fill="#D8E9D6" stroke="#6D8967" stroke-miterlimit="10"/>
<rect x="2013" y="1529" width="793" height="194" fill="#6D8967"/>
<path d="M3872 1244.39C3873.16 1250.7 3876.11 1256.95 3879.38 1262.52C3883.21 1269.14 3887.19 1275.67 3891.1 1282.24C3914.41 1321.23 3938.13 1360.91 3961.54 1400.09C3968.82 1411.87 3975.21 1423.97 3983.12 1435.12C3984.79 1437.4 3987.44 1440.15 3989.43 1442L4111.43 1244.39H3872.01H3872Z" fill="#D8E9D6" stroke="#6D8967" stroke-width="5" stroke-miterlimit="10"/>
<path d="M4367.43 1244C4366.23 1250.31 4363.19 1256.56 4359.81 1262.14C4355.86 1268.76 4351.75 1275.29 4347.72 1281.86C4323.66 1320.87 4299.18 1360.56 4275.02 1399.76C4267.5 1411.54 4260.91 1423.64 4252.74 1434.8C4251.02 1437.08 4249.12 1439.15 4247.07 1441L4127.43 1244H4367.42H4367.43Z" fill="#D8E9D6" stroke="#6D8967" stroke-width="5" stroke-miterlimit="10"/>
<path d="M4119.43 1247L3997.98 1447.75C4001.42 1449.38 4005.13 1450.44 4009.08 1450.84C4038.61 1451.44 4210.43 1450.5 4227.93 1450.5C4233.43 1450.5 4237.43 1449 4240.43 1446.5L4119.43 1247Z" fill="#D8E9D6" stroke="#6D8967" stroke-width="5" stroke-miterlimit="10"/>
</g>
<defs>
<clipPath id="clip0_294_9">
<rect width="6803.15" height="1984.25" fill="white"/>
</clipPath>
</defs>
</svg>
