<svg width="6804" height="1985" viewBox="0 0 6804 1985" fill="none" xmlns="http://www.w3.org/2000/svg">
<g clip-path="url(#clip0_243_67)">
<path d="M6816.34 -0.0297852H-1.06006V2048.59H6816.34V-0.0297852Z" fill="#9FBB99"/>
<path d="M1127.76 774.96C1120.55 782.5 1110.2 781.45 1098.28 781.73C1089.37 781.73 1080.51 781.73 1071.56 781.74C1045.54 781.74 1019.53 781.77 997.25 781.74C986.53 781.6 975.36 782.55 969.14 774.39C962.1 764.25 964.15 750.76 963.72 738.95C963.76 732.06 963.62 724.69 964.24 718.18C965.44 704.15 972.51 697.26 986.93 696.89C1025.12 696.54 1073.76 696.5 1110.81 696.85C1117.76 697.13 1125.09 698.65 1129.01 704.52C1134.38 712.98 1133.66 722.74 1133.9 733.31C1133.38 745.74 1136.1 765.46 1127.85 774.85L1127.75 774.96H1127.76Z" fill="#334737"/>
<path d="M1411.22 774.96C1404.01 782.5 1393.66 781.45 1381.74 781.73C1372.83 781.73 1363.97 781.73 1355.02 781.74C1329 781.74 1302.99 781.77 1280.71 781.74C1269.99 781.6 1258.82 782.55 1252.6 774.39C1245.56 764.25 1247.61 750.76 1247.18 738.95C1247.22 732.06 1247.08 724.69 1247.7 718.18C1248.9 704.15 1255.97 697.26 1270.39 696.89C1308.58 696.54 1357.22 696.5 1394.27 696.85C1401.22 697.13 1408.55 698.65 1412.47 704.52C1417.84 712.98 1417.12 722.74 1417.36 733.31C1416.83 745.78 1419.58 765.39 1411.31 774.85L1411.21 774.96H1411.22Z" fill="#334737"/>
<path d="M1808.07 774.96C1800.86 782.5 1790.51 781.45 1778.59 781.73C1769.68 781.73 1760.82 781.73 1751.87 781.74C1725.85 781.74 1699.84 781.77 1677.56 781.74C1666.84 781.6 1655.67 782.55 1649.45 774.39C1642.41 764.25 1644.46 750.76 1644.03 738.95C1644.07 732.06 1643.93 724.69 1644.55 718.18C1645.75 704.15 1652.82 697.26 1667.24 696.89C1705.43 696.54 1754.07 696.5 1791.12 696.85C1798.07 697.13 1805.4 698.65 1809.32 704.52C1814.69 712.98 1813.97 722.74 1814.21 733.31C1813.69 745.74 1816.41 765.46 1808.16 774.85L1808.06 774.96H1808.07Z" fill="#334737"/>
<path d="M2091.54 774.34C2084.33 781.88 2073.98 780.83 2062.06 781.11C2053.15 781.11 2044.29 781.11 2035.34 781.12C2009.32 781.12 1983.31 781.15 1961.03 781.12C1950.31 780.98 1939.14 781.93 1932.92 773.77C1925.88 763.63 1927.93 750.14 1927.5 738.33C1927.54 731.44 1927.4 724.07 1928.02 717.56C1929.22 703.53 1936.29 696.64 1950.71 696.27C1988.9 695.92 2037.54 695.88 2074.59 696.23C2081.54 696.51 2088.87 698.03 2092.79 703.9C2098.16 712.36 2097.44 722.12 2097.68 732.69C2097.15 745.16 2099.9 764.77 2091.63 774.23L2091.53 774.34H2091.54Z" fill="#334737"/>
<path d="M2375 774.34C2367.79 781.88 2357.44 780.83 2345.52 781.11C2336.61 781.11 2327.75 781.11 2318.8 781.12C2292.78 781.12 2266.77 781.15 2244.49 781.12C2233.77 780.98 2222.6 781.93 2216.38 773.77C2209.34 763.63 2211.39 750.14 2210.96 738.33C2211 731.44 2210.86 724.07 2211.48 717.56C2212.63 703.59 2219.81 696.6 2234.17 696.27C2272.36 695.92 2321 695.88 2358.05 696.23C2365 696.51 2372.33 698.03 2376.25 703.9C2381.62 712.36 2380.9 722.12 2381.14 732.69C2380.61 745.16 2383.36 764.77 2375.09 774.23L2374.99 774.34H2375Z" fill="#334737"/>
<path d="M3336.14 1603.21H2801.13V1901.72H3336.14V1603.21Z" fill="#30462D"/>
<path d="M4831.11 1000.52L4992.42 973.24" stroke="#30462D" stroke-width="5" stroke-miterlimit="10"/>
<path d="M5439.07 1051.99L5600.38 1085.21" stroke="#30462D" stroke-width="5" stroke-miterlimit="10"/>
<path d="M2658.47 774.34C2651.26 781.88 2640.91 780.83 2628.99 781.11C2620.08 781.11 2611.22 781.11 2602.27 781.12C2576.25 781.12 2550.24 781.15 2527.96 781.12C2517.24 780.98 2506.07 781.93 2499.85 773.77C2492.81 763.63 2494.86 750.14 2494.43 738.33C2494.47 731.44 2494.33 724.07 2494.95 717.56C2496.15 703.53 2503.22 696.64 2517.64 696.27C2555.83 695.92 2604.47 695.88 2641.52 696.23C2648.47 696.51 2655.8 698.03 2659.72 703.9C2665.09 712.36 2664.37 722.12 2664.61 732.69C2664.09 745.12 2666.81 764.84 2658.56 774.23L2658.46 774.34H2658.47Z" fill="#334737"/>
<path d="M2767.01 967.97C2757.93 962.97 2747.05 963.23 2736.89 963.09C2721.15 963.04 2704.4 962.99 2688.75 963.09C2657.57 962.52 2651 974.05 2636.03 999C2630.21 1008.56 2624.36 1018.07 2618.58 1027.66C2613.83 1035.7 2608.52 1044.4 2607.88 1052.59C2606.79 1065.51 2615.19 1076.65 2621.33 1087.37C2628.26 1098.72 2635.19 1110.17 2642.07 1121.28C2647.26 1129.66 2653.2 1138.38 2662.22 1142.82C2668.83 1146.2 2676.63 1147.05 2684.09 1147.29C2705.33 1147.58 2727.66 1147.67 2749.07 1146.98C2766.36 1146.31 2775.1 1139.19 2783.96 1124.91C2794.22 1108.38 2805.11 1091.02 2814.69 1074.31C2825.83 1054.65 2818.42 1041.27 2807.54 1023.96C2801.1 1013.41 2793.96 1001.6 2787.14 990.55C2781.86 982.08 2776.07 972.88 2767.18 968.07L2767.02 967.98L2767.01 967.97Z" fill="#334737"/>
<path d="M5679.33 1530.94L5965.59 1530.71" stroke="#30462D" stroke-width="5" stroke-miterlimit="10"/>
<path d="M3101.96 589.38C3093 583.97 3082.2 584.36 3072.05 584.31C3053.59 584.28 3028.46 584.29 3007.73 584.31C2991.31 584.31 2971.88 584.34 2957.16 584.34C2942.06 584.19 2926.84 583.61 2915.71 595.68C2911.69 599.83 2908.76 604.66 2905.75 609.65C2887.67 639.93 2863.2 680.94 2844.63 712.12C2836.69 724.94 2830.87 737.19 2837.66 752C2855.77 786.51 2884.35 830.61 2903.19 863.14C2906.3 868.32 2909.31 873.69 2912.97 878.37C2916.04 882.28 2919.58 885.56 2924.01 887.9C2937.9 895.04 2955.04 892.3 2970.27 892.86C3008.37 892.36 3048.81 894.05 3087.13 892.15C3092.44 891.48 3097.37 890.06 3101.7 887.61C3108.59 883.8 3113.81 877.25 3118.02 870.48C3123.77 861.21 3129.26 851.75 3134.89 842.39C3150.99 815.2 3167.84 787.44 3183.66 760.34C3187.56 753.5 3190.96 745.1 3190.85 737.66C3190.85 733.15 3189.71 728.93 3187.86 724.76C3169.43 690.94 3143.39 649.98 3121.67 612.74C3116.55 604.1 3110.75 594.55 3102.12 589.48L3101.98 589.4L3101.96 589.38Z" fill="#334737" stroke="#35462D" stroke-miterlimit="10" stroke-linecap="round"/>
<path d="M3325.83 1892.29C3321.43 1897.54 3313.46 1897.57 3306.88 1897.56C3179.8 1893.5 2882.02 1905.91 2809.32 1893.25C2806.98 1889.28 2806.37 1880.61 2806.34 1874.7C2806.21 1802.34 2806.25 1713.35 2806.36 1638.11C2806.65 1625.48 2808.92 1611.83 2824.44 1614.31C2906.13 1615.11 3239.8 1612.34 3321.79 1615.05C3328.53 1615.89 3330.09 1624.6 3330.33 1630.76C3330.88 1682.93 3330.61 1738.82 3330.92 1792.27C3330.8 1822.92 3331.11 1851.33 3330.21 1878.18C3329.92 1883.17 3328.82 1888.63 3325.89 1892.2L3325.81 1892.29H3325.83Z" fill="#D8E9D6" stroke="#30462D" stroke-miterlimit="10"/>
<path d="M1223.51 435.07C1217.92 435.25 1213.14 443.17 1210.07 448.16C1203.76 458.76 1197.07 470.22 1190.71 480.98C1170.65 516 1146.44 554.05 1127.98 588.71C1126.63 592.39 1125.76 595.43 1127.24 598.73C1130.2 603.8 1138.07 603.43 1144.01 603.58C1189.88 603.4 1266.02 604.12 1310.5 603.36C1313.43 603.11 1315.91 602.59 1317.68 601.62C1324.32 597.68 1319.7 589.5 1316.94 583.77C1298.89 552.29 1276.43 514.95 1257.47 482.58C1250.65 471.04 1243.61 458.92 1236.8 447.52C1233.82 442.68 1229.05 435.13 1223.62 435.08H1223.52L1223.51 435.07Z" fill="#334737"/>
<path d="M3824.38 434.46C3818.79 434.64 3814.01 442.56 3810.94 447.55C3804.63 458.15 3797.94 469.61 3791.58 480.37C3771.52 515.39 3747.31 553.44 3728.85 588.1C3727.5 591.78 3726.63 594.82 3728.11 598.12C3731.07 603.19 3738.94 602.82 3744.88 602.97C3790.75 602.79 3866.89 603.51 3911.37 602.75C3914.3 602.5 3916.78 601.98 3918.55 601.01C3925.19 597.07 3920.57 588.89 3917.81 583.16C3899.76 551.68 3877.3 514.34 3858.34 481.97C3851.52 470.43 3844.48 458.31 3837.67 446.91C3834.69 442.07 3829.92 434.52 3824.49 434.47H3824.39L3824.38 434.46Z" fill="#30462D"/>
<path d="M3813.12 700.94C3807.07 697.77 3799.42 696.55 3792.3 696.28C3765.55 695.74 3735.08 696.21 3709.73 696.07C3686.43 696.34 3669.92 693.42 3655.27 715.39C3640.49 737.28 3625.75 759.98 3611.35 782.09C3595.14 805.69 3597.12 815.79 3613.05 839.33C3627.81 861.36 3642.07 885.3 3657.87 906.88C3661.44 911.28 3665.44 914.97 3670.1 917.53C3680.82 923.54 3694.2 922.75 3706.39 922.86C3715.29 922.86 3724.16 922.86 3733.07 922.86C3748.03 922.86 3763.28 922.86 3778.21 922.85C3791.85 922.67 3805.46 923.6 3816.25 916.14C3821.28 912.74 3825.03 908.03 3828.56 903.08C3833.37 896.21 3837.67 889.39 3842.43 882.2C3852.92 866.16 3864.77 848.36 3874.97 832.34C3881.05 823.13 3885.84 811.92 3882.06 800.92C3879.96 793.93 3875.34 787.15 3870.8 780.12C3866.98 774.26 3863.18 768.44 3859.34 762.55C3851.79 750.98 3844.18 739.32 3836.61 727.79C3829.82 717.8 3823.68 706.27 3813.27 701.03L3813.12 700.95V700.94Z" fill="#30462D"/>
<path d="M3693.53 1580.28C3685.28 1587.66 3672.02 1585.23 3661.59 1585.77C3643.22 1585.77 3624.04 1585.77 3605.54 1585.77C3597.16 1585.71 3588.72 1585.92 3580.38 1585.58C3570.43 1585.45 3560.75 1581.3 3558.73 1570.74C3555.85 1549.84 3558.17 1527.88 3557.45 1506.42C3557.54 1493.09 3557.23 1479.72 3557.66 1466.42C3557.9 1451.4 3564.8 1444.42 3579.88 1444.19C3593.19 1443.75 3606.55 1444.07 3619.88 1443.98C3641.4 1444.7 3663.23 1442.36 3684.23 1445.28C3694.71 1447.32 3698.92 1456.94 3699.04 1466.87C3699.37 1475.21 3699.18 1483.69 3699.23 1492.07C3699.23 1510.57 3699.23 1529.76 3699.23 1548.13C3698.69 1558.61 3701.14 1571.95 3693.63 1580.17L3693.52 1580.27L3693.53 1580.28Z" fill="#D8E9D6" stroke="#30462D" stroke-width="5" stroke-miterlimit="10"/>
<path d="M3858.35 1607.07C3849.27 1602.07 3838.39 1602.33 3828.23 1602.19C3812.49 1602.14 3795.74 1602.09 3780.09 1602.19C3748.91 1601.62 3742.34 1613.15 3727.37 1638.1C3721.55 1647.66 3715.7 1657.17 3709.92 1666.76C3705.17 1674.8 3699.86 1683.5 3699.22 1691.69C3698.13 1704.61 3706.53 1715.75 3712.67 1726.47C3719.6 1737.82 3726.53 1749.27 3733.41 1760.38C3738.6 1768.76 3744.54 1777.48 3753.56 1781.92C3760.17 1785.3 3767.97 1786.15 3775.43 1786.39C3796.67 1786.68 3819 1786.77 3840.41 1786.08C3857.7 1785.41 3866.44 1778.29 3875.3 1764.01C3885.56 1747.48 3896.45 1730.12 3906.03 1713.41C3917.17 1693.75 3909.76 1680.37 3898.88 1663.06C3892.44 1652.51 3885.3 1640.7 3878.48 1629.65C3873.2 1621.18 3867.41 1611.98 3858.52 1607.17L3858.36 1607.08L3858.35 1607.07Z" fill="#D8E9D6" stroke="#30462D" stroke-width="5" stroke-miterlimit="10"/>
<path d="M4722.7 877.45C4715.51 875.06 4706.7 875.5 4698.85 876.75C4662.27 882.82 4615.79 891.23 4584.27 896.64C4560.27 900.08 4550.09 906.01 4541.1 929.38C4528.56 961.48 4515.74 994.78 4503.32 1026.77C4492.79 1052.23 4492.91 1064.22 4511.79 1084.68C4531.79 1107.53 4551.89 1130.35 4572.05 1153.36C4578.76 1160.8 4585.09 1168.94 4592.62 1175.41C4606.55 1187.44 4621.31 1184.87 4637.93 1181.7C4674.51 1174.69 4724.1 1168.45 4761.05 1159.35C4765.26 1157.88 4769.01 1155.89 4772.17 1153.28C4777.91 1148.62 4781.62 1141.79 4784.51 1134.83C4797.23 1102.84 4812.22 1063.26 4824.54 1031.68C4835.19 1006.21 4833.84 995.09 4814.78 974.68C4791.93 948.79 4763.4 915.76 4740.1 889.74C4735.19 884.38 4729.77 879.71 4722.85 877.51L4722.69 877.46L4722.7 877.45Z" fill="#D8E9D6" stroke="#30462D" stroke-width="5" stroke-miterlimit="10"/>
<path d="M5361.36 838.5C5357.81 835.34 5353.67 833.2 5349.06 831.76C5296.29 820.84 5215.31 808.26 5163.53 798.66C5139.77 793.76 5129.26 802.18 5115.17 820.22C5081.9 860.59 5027.86 922.56 4999.26 959.36C4995.82 964.07 4993.15 969.2 4992.53 974.89C4991.91 980.19 4993.02 986.01 4995.04 992.46C5012.64 1043.54 5040.19 1117.49 5057.12 1165.01C5061.9 1179.66 5069.32 1189.52 5084.9 1193.87C5096.46 1196.92 5108.96 1198.48 5120.98 1200.76C5166.9 1208.81 5213.16 1216.94 5258.89 1224.96C5277.06 1228.42 5292.5 1230.38 5306.64 1216.01C5342.43 1175.33 5378.19 1130.49 5413.17 1089.29C5422.36 1077.68 5435.12 1065.88 5438.39 1051.26C5439.4 1046.38 5438.98 1041.7 5437.79 1036.97C5422.01 989.87 5396.21 921.72 5376.63 866.38C5373.17 856.58 5369.19 845.38 5361.47 838.59L5361.35 838.48L5361.36 838.5Z" fill="#D8E9D6" stroke="#30462D" stroke-width="5" stroke-miterlimit="10"/>
<path d="M5826.96 903.08C5819.77 900.69 5810.96 901.13 5803.11 902.38C5766.53 908.45 5720.05 916.86 5688.53 922.27C5664.53 925.71 5654.35 931.64 5645.36 955.01C5632.82 987.11 5620 1020.41 5607.58 1052.4C5597.05 1077.86 5597.17 1089.85 5616.05 1110.31C5636.05 1133.16 5656.15 1155.98 5676.31 1178.99C5683.02 1186.43 5689.35 1194.57 5696.88 1201.04C5710.81 1213.07 5725.57 1210.5 5742.19 1207.33C5778.77 1200.32 5828.36 1194.08 5865.31 1184.98C5869.52 1183.51 5873.27 1181.52 5876.43 1178.91C5882.17 1174.25 5885.88 1167.42 5888.77 1160.46C5901.49 1128.47 5916.48 1088.89 5928.8 1057.31C5939.45 1031.84 5938.1 1020.72 5919.04 1000.31C5896.19 974.42 5867.66 941.39 5844.36 915.37C5839.45 910.01 5834.03 905.34 5827.11 903.14L5826.95 903.09L5826.96 903.08Z" fill="#D8E9D6" stroke="#30462D" stroke-width="5" stroke-miterlimit="10"/>
<path d="M4434.86 1163.18C4429.62 1165.49 4427.28 1175.3 4425.91 1181.22C4412.23 1241.88 4396.45 1310.76 4383.11 1370.31C4381.85 1376.53 4380.09 1383.33 4381.87 1388.87C4383.8 1393.85 4389.11 1392.95 4393.82 1391.56C4444.54 1373.66 4550.89 1334.48 4602.87 1315.75C4612.87 1312.06 4628.6 1308.15 4616.42 1295.41C4613.87 1292.67 4610.32 1289.88 4607.14 1287.47C4557.5 1249.74 4501.8 1207.43 4451.66 1169.42C4447.24 1166.04 4439.54 1160.87 4434.95 1163.13L4434.86 1163.17V1163.18Z" fill="#30462D"/>
<path d="M4916.05 1058.69C4909.82 1058.93 4905.07 1066.59 4901.73 1071.78C4893.28 1085.43 4884.18 1100.37 4875.04 1115.28C4864.36 1132.76 4852.6 1151.91 4842.38 1168.52C4838.25 1175.73 4832.24 1183.48 4830.91 1191.55C4830.18 1197.55 4835.7 1199.49 4841.31 1199.97C4879.42 1201.66 4940.3 1200.05 4978.28 1200.3C4986.4 1200.1 5002.79 1201.96 5000.78 1189.96C5000.1 1186.16 4998.39 1182.77 4996.32 1179.1C4992.75 1172.97 4988.77 1166.65 4984.98 1160.45C4972.81 1140.69 4960.72 1120.86 4948.68 1101.22C4944.43 1094.28 4940.11 1087.24 4935.89 1080.36C4931.1 1073.43 4925.05 1059.18 4916.19 1058.7H4916.07L4916.05 1058.69Z" fill="#30462D"/>
<path d="M5573.57 1112.44C5565.71 1106.98 5555.68 1106.04 5546.31 1105.11C5532.53 1103.84 5517.46 1102.65 5503.72 1101.49C5472.73 1098.33 5462.57 1100.87 5444.26 1127.62C5437.69 1136.65 5431.19 1145.78 5424.68 1154.85C5418.34 1164.02 5409.97 1173.99 5407.85 1184.08C5405.04 1196.72 5411.71 1208.84 5416.87 1220.06C5422.84 1232.48 5428.72 1244.81 5434.66 1257.02C5439.1 1266.1 5444.11 1275.76 5452.8 1281.34C5459.88 1286.06 5468.84 1287.54 5477.28 1288.39C5495.46 1290.06 5514.11 1291.66 5532.47 1293.05C5554.43 1294.91 5565.21 1288.98 5577.86 1271.25C5586.57 1259.53 5595.31 1247.1 5603.75 1235.34C5608.03 1229.27 5612.58 1223.16 5615.71 1216.49C5623.88 1200.25 5613.72 1183.96 5606.87 1169.24C5601.36 1157.84 5595.55 1145.46 5589.74 1133.79C5585.78 1125.86 5581.04 1117.53 5573.71 1112.55L5573.56 1112.45L5573.57 1112.44Z" fill="#30462D"/>
<path d="M5012.17 843.58C5011.83 854.81 4999.8 863.7 4992.62 871.6C4973.05 891.06 4953.36 911.49 4933.44 930.78C4914.08 949.13 4901.73 933.95 4887.18 919.34C4867.8 899.58 4847.72 880.19 4828.65 860.19C4817.61 848.45 4817.55 838.44 4828.65 826.66C4847.66 806.7 4867.69 787.36 4887.03 767.65C4901.38 753.31 4913.83 737.67 4933.13 755.79C4953.23 775.18 4973.04 795.8 4992.77 815.39C4999.98 823.32 5011.92 832.12 5012.17 843.42V843.58Z" fill="#30462D"/>
<path d="M4443.43 1116.91C4438.2 1126.19 4427.76 1129.04 4416.56 1133.49C4405.11 1137.65 4393.52 1141.87 4381.98 1145.85C4354.48 1155.63 4345.6 1147.78 4336.44 1120.8C4327.97 1098.21 4318.36 1072.33 4310.05 1049.27C4307.87 1043.14 4305.62 1037.11 4304.49 1031.5C4301.18 1016.78 4309.75 1008.39 4322.51 1003.09C4334.24 998.19 4346.52 994.18 4358.48 989.78C4369.35 986.19 4380.14 981.11 4390.82 983.27C4404.78 986.46 4409.25 1002.48 4413.89 1014.37C4422.8 1038.62 4432.01 1063.27 4440.82 1087.56C4443.89 1096.63 4448.15 1107.79 4443.51 1116.76L4443.44 1116.9L4443.43 1116.91Z" fill="#30462D"/>
<path d="M668.53 491.96C662.89 489.52 657.07 485.61 651.97 481.58C635.3 468.15 617.62 452.32 601.36 438.41C592.78 430.85 583.17 423.59 575.97 414.78C568.66 405.88 566.72 398.42 567.05 388.22C567.59 310.28 565.67 84.2098 567.4 1.72983C567.76 -5.57017 568.95 -10.2102 576.32 -10.7702C669.81 -11.4702 1034.05 -14.5302 1127.18 -9.34017C1130.37 -7.22017 1132.44 -2.89017 1133.31 4.13983C1134.69 24.2798 1133.45 45.6498 1133.74 66.0998C1133.08 172.13 1135.57 334.33 1133.15 398.1C1132.82 401.19 1131.98 404.25 1130.36 407.37C1124.69 417.71 1113.77 425.94 1104.81 433.84C1084.57 450.78 1063.42 470.61 1042.44 486.28C1033.33 492.79 1023.67 496.7 1013.2 496.26C958.75 496.31 818.46 496.26 732.85 496.27C719.65 496.24 706.15 496.32 693.77 496.25C685.16 496.21 676.62 495.55 668.69 492.03L668.54 491.96H668.53Z" fill="#D8E9D6" stroke="#30462D" stroke-width="5" stroke-miterlimit="10"/>
<path d="M1405.54 491.99C1399.9 489.57 1394.08 485.68 1388.98 481.67C1372.31 468.32 1354.63 452.59 1338.37 438.77C1329.79 431.26 1320.18 424.04 1312.98 415.29C1305.67 406.45 1303.73 399.03 1304.06 388.9C1304.6 311.44 1302.68 86.77 1304.41 4.81C1304.77 -2.45 1305.96 -7.05 1313.33 -7.61C1406.82 -8.3 1771.06 -11.35 1864.19 -6.19C1867.38 -4.08 1869.45 0.219997 1870.32 7.21C1871.7 27.23 1870.46 48.46 1870.75 68.78C1870.09 174.15 1872.58 335.35 1870.16 398.72C1869.83 401.79 1868.99 404.83 1867.37 407.93C1861.7 418.21 1850.78 426.38 1841.82 434.23C1821.58 451.06 1800.43 470.78 1779.45 486.34C1770.34 492.81 1760.68 496.7 1750.21 496.26C1695.76 496.31 1555.47 496.26 1469.86 496.27C1456.66 496.24 1443.16 496.32 1430.78 496.25C1422.17 496.21 1413.63 495.56 1405.7 492.05L1405.55 491.98L1405.54 491.99Z" fill="#D8E9D6" stroke="#30462D" stroke-width="5" stroke-miterlimit="10"/>
<path d="M2045.54 -3.12006C2037.42 5.85994 2042.13 20.5499 2040.92 32.1599C2040.94 59.0999 2040.98 87.3899 2040.95 115.53C2040.96 201.37 2040.93 346.52 2040.95 390.59C2040.84 398.15 2041.28 403.86 2046.23 410.84C2062.95 431.62 2087.16 447.38 2106.72 465.22C2118.5 474.76 2129.59 486.2 2143.89 491.69C2173.29 500.02 2204.82 494.15 2235.16 495.83C2262.53 495.57 2290.47 496.4 2317.7 495.39C2335.6 494.8 2350.11 484.39 2363.05 472.8C2384.11 454.1 2411.35 434.25 2430.53 413.88C2436.09 406.98 2437.65 401.62 2437.62 394.01C2435.64 321.19 2442.44 102.31 2435.13 -0.480057C2432.41 -6.47006 2427.08 -7.87006 2421.27 -7.71006C2376.74 -7.55006 2269.12 -8.15006 2171.3 -8.10006C2128.3 -7.93006 2090.97 -8.03006 2059.65 -7.19006C2054.7 -6.99006 2049.13 -6.03006 2045.62 -3.20006L2045.54 -3.13006V-3.12006Z" fill="#D8E9D6" stroke="#30462D" stroke-width="5" stroke-miterlimit="10"/>
<path d="M2022.9 489.86C2014.08 500.61 1996.3 497.97 1983.38 498.48C1964.18 498.48 1943.37 498.48 1924.34 498.48C1908.21 498.56 1886.76 499.6 1885.07 478.42C1884.53 469.54 1889.58 461.02 1898.21 458.27C1902.79 456.63 1908.31 456.19 1914.04 456.04C1938.45 455.68 1966.55 455.98 1990.68 455.99C2000.58 456.2 2012.2 455.34 2020.13 462C2027.69 468.4 2029.11 481.79 2023 489.75L2022.9 489.88V489.86Z" fill="#334737"/>
<path d="M1991.65 86.3302C1999.19 93.5402 1998.14 103.89 1998.42 115.81C1998.42 124.72 1998.42 133.58 1998.43 142.53C1998.43 168.55 1998.46 194.56 1998.43 216.84C1998.29 227.56 1999.24 238.73 1991.08 244.95C1980.94 251.99 1967.45 249.94 1955.64 250.37C1948.75 250.33 1941.38 250.47 1934.87 249.85C1920.9 248.7 1913.91 241.52 1913.58 227.16C1913.13 191.37 1913.41 143.69 1913.4 109.03C1913.46 100.51 1913.61 90.2002 1921.21 85.0802C1929.67 79.7102 1939.43 80.4302 1950 80.1902C1962.6 80.7402 1981.89 77.9202 1991.54 86.2402L1991.65 86.3402V86.3302Z" fill="#334737"/>
<path d="M1564.44 1687.41C1549.74 1578.68 1563.12 1402.42 1559.54 1292.6C1561.58 1268.07 1586.85 1254.91 1603.32 1239.48C1629.7 1219.03 1653.65 1187.41 1690.25 1190.8C1755.74 1191.05 1839.13 1190.26 1894.58 1191.09C1907.81 1191.54 1921.24 1199.64 1931.59 1208.59C1951.49 1225.23 1971.29 1241.94 1990.96 1258.6C2004.21 1268.68 2013.21 1283.43 2012.52 1300.62C2012.91 1412.55 2012.44 1548.29 2012.59 1657.31C2012.06 1668.32 2014.21 1679.94 2008.51 1689.1C1936.65 1699.1 1701.47 1688.95 1584.58 1692.25C1577.79 1692.37 1568.86 1692.04 1564.52 1687.49L1564.44 1687.41Z" fill="#D8E9D6" stroke="#30462D" stroke-width="5" stroke-miterlimit="10"/>
<path d="M2186.89 1533.74C2182.35 1526.46 2182.76 1516.28 2182.66 1507.67C2182.68 1463.31 2182.63 1404.53 2182.66 1359.22C2182.64 1341.55 2182.68 1326.31 2182.66 1310.21C2181.76 1293.8 2184.42 1278.7 2196.72 1266.82C2214.7 1249.53 2234.57 1234.04 2253.38 1217.51C2263.69 1208.82 2274.17 1198.91 2286.89 1194.44C2295.72 1191.2 2305.1 1190.81 2314.5 1190.76C2373.71 1190.75 2446.62 1190.84 2501.47 1190.9C2514.54 1190.76 2527.79 1191.27 2539.55 1197.87C2562.38 1212.18 2582.99 1233.6 2603.88 1250.39C2624.33 1267.46 2638.69 1279.16 2636.3 1308.08C2636.26 1376.6 2636.55 1453.79 2635.93 1521.86C2635.68 1528.05 2634.29 1536.2 2628.24 1538.19C2578.85 1543.24 2458.95 1538.93 2347.68 1539.7C2311.49 1539.8 2272.24 1540.12 2236.74 1540.08C2228.35 1540.1 2219.69 1540.09 2211.48 1540.1C2202.82 1539.85 2192.54 1541.65 2186.97 1533.83L2186.9 1533.73L2186.89 1533.74Z" fill="#D8E9D6" stroke="#30462D" stroke-width="5" stroke-miterlimit="10"/>
<path d="M2810.59 1533.59C2805.71 1527.07 2806.5 1517.27 2806.35 1509.21C2806.35 1483.39 2806.2 1453.29 2806.28 1426.44C2806.37 1385.59 2806.14 1344.31 2806.37 1303.57C2806.41 1291.49 2809.24 1279.58 2817.19 1270.39C2835.01 1251.64 2856.16 1236.37 2875.43 1219.09C2888.85 1207.84 2904.14 1192.49 2921.84 1191.25C2989.39 1191.39 3126.13 1189.37 3216.87 1191.75C3224.16 1192.88 3231.13 1195.61 3237.78 1199.87C3251.45 1209.14 3263 1220.53 3275.97 1231.22C3291.46 1245.26 3308.54 1257.09 3322.11 1272.9C3328.18 1280.62 3330.41 1288.45 3330.59 1297.78C3330 1363.17 3332.95 1470.34 3329.23 1531.55C3328.03 1535.97 3325.85 1538.62 3322.82 1539.6C3272.95 1540.79 3121.1 1540.31 2982.89 1540.71C2921.14 1540.54 2866.88 1540.36 2825.13 1539.18C2819.8 1538.97 2813.95 1537.76 2810.67 1533.69L2810.59 1533.6V1533.59Z" fill="#D8E9D6" stroke="#30462D" stroke-width="5" stroke-miterlimit="10"/>
<path d="M4398.97 1863.46C4401.19 1772.32 4395.81 1647.15 4402.6 1570.54C4406.43 1546.37 4434.76 1522.23 4449.85 1501.46C4469.51 1477.96 4489.05 1453.97 4510.68 1432.45C4528.22 1415.43 4550.51 1403.29 4570.89 1389.56C4599.08 1371.22 4628.96 1351.84 4657.01 1334.09C4667.37 1328.03 4675.16 1322.29 4684.87 1321.07C4723.81 1318.87 4804.24 1319.59 4904.52 1319.66C5035.12 1320.21 5160.63 1320.52 5283.44 1320.04C5311.15 1320.01 5326.28 1317.46 5348.79 1323.33C5417.04 1350.15 5486.33 1385.79 5554.19 1415.73C5567.27 1421.89 5578.07 1428.56 5588.55 1438.67C5617.35 1466.99 5645.39 1497.92 5673.37 1526.7C5685.22 1539.11 5701.1 1553.81 5704.43 1570.61C5706.33 1649.58 5704.54 1853.36 5704.88 1970.59C5704.75 1977.85 5704.58 1991.52 5696.07 1991.06C5505.55 1989.09 4729.72 1993.99 4424.29 1989.97C4405.54 1990.6 4400.03 1979.1 4400.22 1960.99C4399.42 1929.11 4399.16 1895.61 4398.96 1863.65V1863.46H4398.97Z" fill="#B9DCE6" stroke="#30462D" stroke-width="5" stroke-miterlimit="10"/>
<path d="M3444.09 1984.25V1559.44L3557.24 1458.16L3444.09 1559.44V1984.25Z" fill="#30462D" stroke="#30462D" stroke-width="5" stroke-miterlimit="10"/>
<path d="M3338.07 1529.73C2959.04 1528.17 2439.17 1530.01 2057.42 1529.11C2015.54 1528.11 2013.49 1536.16 2013.54 1575.19C2013.24 1601.18 2013.84 1631.19 2013.33 1656.47C2012.81 1668.27 2014.27 1685.67 1998.4 1685.3C1498.32 1686.26 1023.12 1685.14 494.26 1685.52C487.42 1685.31 484.15 1685.27 484.1 1674.41C481.78 1563.4 487.71 1366.75 481.85 1274.52C480.53 1271.29 478.3 1268.54 474.65 1264.99C397.66 1196.62 249.63 1069.47 185.58 1011.97C175.82 1003.45 177.95 990.63 177.43 978.41C177.73 901.34 177.2 808.09 177.43 728.69C177.23 714.64 177.56 701.86 177.45 688.57C177.98 675.33 176.22 663.02 189.37 655.99C284.58 592.32 388.63 524.03 483.49 460.88C520.62 436.57 540.01 423.57 560.68 409.31C569.1 403.77 568.58 394.53 568.75 384.88C568.71 303.29 569.27 81.7898 568.4 1.26981C568.52 -10.0502 558.58 -8.40019 549.44 -8.61019C460.91 -5.95019 76.5 -17.04 -3.5 -11C-8.8 182.25 -7.49018 561.81 -9.42018 704.38C-10.3502 1062.38 -5.79018 1578.98 -9.42018 1993.16C96.9898 2015.34 3206.29 1976.58 3328.63 1984.2C3335.6 1984.02 3344.97 1984.62 3351.18 1980.12C3356.53 1976.48 3359.66 1967.67 3359.06 1959.91C3358.71 1875.56 3359.76 1627.37 3358.76 1547.93C3357.73 1535.73 3349.87 1530.37 3338.15 1529.73H3338.06H3338.07ZM3330.06 1896.05C3214.13 1898.81 2852.4 1897.35 2807.74 1896.54C2806.91 1895.83 2806.75 1894.28 2806.69 1891.04C2806.52 1826.57 2806.76 1720.6 2806.67 1649.68C2806.68 1635.31 2806.65 1624.53 2806.69 1618.99C2806.98 1614.54 2806.08 1612.2 2812.15 1612.57C2862.04 1613.4 3277.5 1611.05 3329.75 1613.35C3330.69 1614.29 3330.7 1616.61 3330.72 1621.67C3330.07 1699.18 3331.95 1819.31 3330.07 1896.01V1896.04L3330.06 1896.05Z" fill="#30462D"/>
<path d="M5872.43 1989.9C5869.44 1985.74 5868.33 1979.65 5868.12 1974C5867.31 1940.79 5867.7 1902.48 5867.55 1860.53C5868.38 1791.63 5866.29 1725.83 5868.76 1663.06C5876.38 1630.75 5904.32 1606.37 5922.14 1579.32C5933.69 1564.21 5944.57 1548.06 5958.8 1535.32C5973.2 1522.62 5989.55 1512.81 6005.04 1501.69C6124.54 1418.84 6369.55 1249.31 6427.54 1209.06C6433.95 1204.8 6437.02 1200.39 6439.06 1191.5C6444.44 1133.45 6439.56 1071.97 6441.15 1010.74C6443.21 992.87 6434.22 964.09 6455.58 956.84C6536.3 953.77 6715.7 956.94 6790.46 955.89C6796.74 955.76 6803.79 956.09 6808.03 960.71C6824.49 1267.83 6808.64 1652.4 6813.83 1971.09C6813.8 1982.72 6809.65 1992.34 6798.29 1994.63C6536.58 1998.17 6270.87 1994.97 6007.55 1995.86C5966.56 1995.88 5927.63 1995.66 5890.15 1995.77C5883.83 1995.74 5876.61 1995.27 5872.5 1989.99L5872.43 1989.9Z" fill="#D8E9D6" stroke="#30462D" stroke-width="5" stroke-miterlimit="10"/>
<path d="M5221.48 -0.860195C5217.75 3.68981 5216.42 10.7298 5216.25 17.1998C5215.01 127.4 5216 267.83 5215.78 370.92C5214.7 404.92 5224.61 418.89 5250.17 439.99C5262.16 450.23 5274.27 460.38 5286.3 470.59C5295.74 478.37 5304.01 485.53 5312.49 491.24C5321.07 496.81 5324.58 498.58 5331.82 499.97C5455.95 523.8 6003.73 624.05 6257.34 671.02C6276.91 676.89 6294.87 661.91 6309.41 649.95C6454.11 536.12 6710.5 321.43 6803.99 254.42C6807.26 254.53 6809.77 257.93 6811.2 264.32C6811.41 265.23 6811.59 266.19 6811.76 267.2C6813.06 275.41 6812.84 283.97 6812.89 292.35C6812.95 314.34 6812.97 337.41 6812.92 359.89C6812.35 376.91 6814.6 399.94 6802.7 412.87C6714.18 480.9 6450.54 645.13 6356.06 714.2C6351.64 718.14 6348.15 723.19 6345.96 730.16C6342.1 742.71 6342.5 757.03 6342.33 770.22C6342.47 788.24 6341.91 806.01 6343.01 823.8C6344.83 844.31 6351.31 853 6372.15 852.39C6470.51 853.96 6654.84 852.25 6769.68 852.84C6777.77 852.84 6786.9 853.01 6794.26 851.81C6809.03 849.47 6813.88 843.53 6813.01 827.66C6812.93 613.95 6812.91 135.19 6812.9 9.0598C6812.98 4.7598 6812.92 2.2898 6812.92 -3.3902V-10.2002H6802.84C6798.83 -10.1802 6790.64 -10.1002 6786.62 -10.1602C6778.34 -10.2802 6770.93 -10.0102 6762.65 -10.1102C6745.12 -10.3402 6723.07 -9.6502 6705.54 -9.8402C6653.99 -10.3902 6613.53 -9.9602 6553.25 -9.8402C6496.83 -9.7302 6440.77 -9.5902 6384.39 -9.8002C6336.07 -9.9802 6283.25 -9.5102 6234.93 -9.6002C6184.92 -9.7002 6134.91 -9.7602 6084.9 -9.7802C6034.16 -9.8102 5983.41 -9.8002 5932.67 -9.7502C5882.16 -9.7102 5831.64 -9.6402 5781.13 -9.5302C5731.8 -9.4302 5682.48 -9.3002 5633.16 -9.1402C5585.98 -8.9902 5538.81 -8.8102 5491.63 -8.6002C5447.56 -8.4002 5403.5 -8.1802 5359.44 -7.9202C5319.45 -7.6902 5279.45 -7.4202 5239.46 -7.1202C5231.91 -6.7202 5225.72 -5.7202 5221.56 -0.950195L5221.48 -0.860195Z" fill="#D8E9D6" stroke="#30462D" stroke-width="5" stroke-miterlimit="10"/>
<path d="M3160.81 -5.26978C3158.18 -5.65978 3155.4 -5.76978 3152.68 -5.66978C3022.08 -6.37978 2797.91 -5.45978 2644.8 -5.81978C2633.35 -5.11978 2619.66 -8.62978 2612.15 -0.61978L2612.08 -0.52978C2608.51 4.48022 2608.16 12.1902 2608 18.6002C2607.25 87.7402 2607.33 177.02 2607.5 249.81C2611.15 308.72 2598.88 398.77 2616.55 416.15C2642.88 441.71 2674.61 467.41 2703.21 489.41C2789.81 507.75 3019.66 490.97 3155.4 495.84C3157.39 495.82 3159.17 495.64 3160.8 495.35V-5.26978H3160.81Z" fill="#D8E9D6" stroke="#30462D" stroke-width="5" stroke-miterlimit="10"/>
<path d="M3741.13 18.6102C3740.97 12.2002 3740.63 4.48024 3737.05 -0.519758L3736.98 -0.609758C3729.47 -8.62976 3715.79 -5.10976 3704.33 -5.80976C3551.22 -5.44976 3327.05 -6.36976 3196.45 -5.65976C3194.01 -5.74976 3191.52 -5.67976 3189.14 -5.38976V495.51C3190.54 495.71 3192.06 495.83 3193.72 495.85C3329.46 490.99 3559.31 507.77 3645.91 489.42C3674.44 467.51 3706.32 441.6 3732.56 416.15C3739.03 409.02 3741.95 400.42 3741.36 391.2C3741.31 362.42 3741.49 309.39 3741.61 249.81C3741.78 177.02 3741.86 87.7402 3741.11 18.6002L3741.13 18.6102Z" fill="#D8E9D6" stroke="#30462D" stroke-width="5" stroke-miterlimit="10"/>
<path d="M4464.39 -9.2199H4473.35C4472.38 -9.6799 4471.3 -10.0299 4470.09 -10.2099C4327.15 -8.7499 4079.51 -20.5699 3917.63 -5.9399L3917.54 -5.8599C3912.98 -1.1999 3912.61 6.5301 3912.44 13.0901C3911.24 82.2701 3910.68 171.67 3910.37 244.51C3913.43 317.23 3902.92 361.36 3914.08 405.05C3924.66 420.4 3940.46 430.43 3954.27 443.02C3970.39 456.42 3988.4 472.86 4004.8 484.11C4091.88 502.93 4323.4 485.74 4459.92 490.73C4461.53 490.75 4463.01 490.67 4464.38 490.48V-9.2199H4464.39Z" fill="#D8E9D6" stroke="#30462D" stroke-width="5" stroke-miterlimit="10"/>
<path d="M5048.15 244.5C5047.84 171.66 5047.28 82.2602 5046.08 13.0802C5045.91 6.5202 5048.05 -1.9498 5044.11 -10.2198L5032.81 -9.2798C4871.53 -14.6498 4631.39 -8.7598 4488.44 -10.2198C4487.24 -10.0298 4486.15 -9.6898 4485.18 -9.2298H4492.74V490.22C4494.49 490.56 4496.42 490.75 4498.6 490.72C4635.12 485.73 4866.64 502.91 4953.72 484.1C4970.12 472.86 4988.12 456.41 5004.25 443.01C5018.06 430.41 5033.87 420.39 5044.44 405.04C5055.6 361.35 5045.09 317.22 5048.15 244.5Z" fill="#D8E9D6" stroke="#30462D" stroke-width="5" stroke-miterlimit="10"/>
<path d="M4398.6 1894.81C4398.27 1896.96 4398.2 1897.5 4396.48 1897.63C4164.48 1897.4 3674.39 1898.13 3445.4 1897.38C3445.07 1897.18 3444.83 1896.82 3444.65 1896.15C3444.51 1895.61 3444.4 1894.88 3444.32 1893.88C3444.19 1890.14 3444.03 1885.93 3444.09 1881.98C3444.44 1867.85 3443.56 1851.52 3444.41 1837.83C3444.8 1834.98 3445.36 1835.11 3447.32 1835.07C3502.49 1836.9 4346.19 1831.55 4398.43 1836.93C4398.94 1841.3 4398.9 1846.31 4398.9 1850.92C4398.57 1864.98 4399.4 1881.13 4398.6 1894.76V1894.83V1894.81Z" fill="#B9DCE6" stroke="#30462D" stroke-width="5" stroke-miterlimit="10"/>
<path d="M921.13 1690.69V1192.08C823.42 1188.58 666.67 1191.67 592.74 1190.99C560.08 1194.71 531.58 1231.84 505.08 1250.51C492.6 1261.43 474.87 1272.55 473.32 1290.25C477.49 1368.68 463.36 1575.89 478.54 1688.02L478.62 1688.11C489.86 1697.61 519.49 1691.61 536.99 1693.24C581.41 1693.28 627.03 1693.38 671.19 1693.27C752.7 1692.89 834.75 1693.93 915.5 1692.88C919.23 1692.86 922.37 1692.06 924.99 1690.69H921.12H921.13Z" fill="#D8E9D6" stroke="#30462D" stroke-width="5" stroke-miterlimit="10"/>
<path d="M1388.69 1290.25C1387.17 1272.55 1369.8 1261.43 1357.56 1250.51C1331.59 1231.84 1303.65 1194.71 1271.65 1190.99C1199.13 1191.67 1045.31 1188.57 949.55 1192.09V1690.7H946C948.57 1692.07 951.65 1692.87 955.31 1692.89C1034.45 1693.94 1114.87 1692.89 1194.76 1693.28C1238.04 1693.39 1282.76 1693.29 1326.29 1693.25C1343.44 1691.62 1372.48 1697.62 1383.5 1688.12L1383.58 1688.03C1398.45 1575.9 1384.6 1368.7 1388.69 1290.26V1290.25Z" fill="#D8E9D6" stroke="#30462D" stroke-width="5" stroke-miterlimit="10"/>
<path d="M3871.57 1244.39C3872.73 1250.7 3875.68 1256.95 3878.95 1262.52C3882.78 1269.14 3886.76 1275.67 3890.67 1282.24C3913.98 1321.23 3937.7 1360.91 3961.11 1400.09C3968.39 1411.87 3974.78 1423.97 3982.69 1435.12C3984.36 1437.4 3986.2 1439.47 3988.19 1441.32L4106.04 1244.39H3871.58H3871.57Z" fill="#D8E9D6" stroke="#30462D" stroke-width="5" stroke-miterlimit="10"/>
<path d="M4124.75 1233.06H4366.63C4365.53 1226.99 4362.65 1221.3 4359.33 1215.94C4329.92 1167.59 4282.32 1085.4 4253.31 1039.47C4250.44 1035.82 4246.98 1032.8 4242.6 1030.66L4242.46 1030.59C4238.27 1028.54 4233.21 1027.27 4227.61 1026.67C4197.48 1025.99 4160.65 1025.94 4124.75 1026.02V1233.06Z" fill="#D8E9D6" stroke="#30462D" stroke-width="5" stroke-miterlimit="10"/>
<path d="M4113.41 1254.15L3997.55 1447.75C4000.99 1449.38 4004.7 1450.44 4008.65 1450.84C4038.18 1451.44 4075.55 1451.51 4113.41 1451.45V1254.15Z" fill="#D8E9D6" stroke="#30462D" stroke-width="5" stroke-miterlimit="10"/>
<path d="M4124.75 1244.39V1451.42C4157.17 1451.35 4189.41 1451.23 4216.88 1451.29C4225.21 1451.27 4235.38 1450.95 4241.84 1447.74C4247.16 1445.29 4251.17 1441.04 4254.52 1436.14C4272.78 1407.99 4296.85 1366.37 4321.01 1325.71C4336.71 1298.81 4348.61 1279.42 4361.47 1257.53C4363.77 1253.44 4365.58 1248.95 4366.47 1244.38H4124.76L4124.75 1244.39Z" fill="#D8E9D6" stroke="#30462D" stroke-width="5" stroke-miterlimit="10"/>
<path d="M4112.82 1233.06L4113.41 1232.07V1026.05C4078.77 1026.15 4045.75 1026.33 4021.37 1026.14C4012.28 1026.16 4002.94 1025.76 3994.89 1030.68C3981.83 1038.89 3974.74 1055.45 3966.54 1068.29C3936.99 1118.57 3904.02 1171.22 3875.16 1222.08C3873.46 1225.71 3872.21 1229.38 3871.56 1233.06H4112.8H4112.82Z" fill="#D8E9D6" stroke="#30462D" stroke-width="5" stroke-miterlimit="10"/>
<path d="M4418.4 1892.44C4418.07 1894.41 4418 1894.9 4416.28 1895.02C4184.79 1894.81 3695.79 1895.48 3467.32 1894.79C3466.99 1894.61 3466.75 1894.28 3466.57 1893.66C3466.43 1893.17 3466.32 1892.5 3466.24 1891.58C3466.11 1888.16 3465.95 1884.3 3466.01 1880.69C3466.36 1867.75 3465.48 1852.8 3466.33 1840.26C3466.72 1837.65 3467.28 1837.77 3469.24 1837.73C3524.28 1839.41 4366.11 1834.51 4418.24 1839.43C4418.75 1843.43 4418.71 1848.02 4418.71 1852.24C4418.38 1865.11 4419.21 1879.9 4418.41 1892.38V1892.44H4418.4Z" fill="#B9DCE6"/>
</g>
<defs>
<clipPath id="clip0_243_67">
<rect width="6803.15" height="1984.25" fill="white"/>
</clipPath>
</defs>
</svg>
